<svg width="13" height="16" viewBox="0 0 13 16" fill="none" xmlns="http://www.w3.org/2000/svg">
<path d="M4.16678 1H8.83344M6.50011 10.3333V5.66667M10.3501 5.70556C11.4131 6.76852 11.9446 8.05185 11.9446 9.55556C11.9446 11.0593 11.4131 12.3426 10.3501 13.4056C9.28715 14.4685 8.00381 15 6.50011 15C4.9964 15 3.71307 14.4685 2.65011 13.4056C1.58715 12.3426 1.05566 11.0593 1.05566 9.55556C1.05566 8.05185 1.58715 6.76852 2.65011 5.70556C3.71307 4.64259 4.9964 4.11111 6.50011 4.11111C8.00381 4.11111 9.28715 4.64259 10.3501 5.70556ZM10.3501 5.70556L11.9446 4.11111" stroke="#AEFB30" stroke-width="2"/>
</svg>
