<svg width="17" height="16" viewBox="0 0 17 16" fill="none" xmlns="http://www.w3.org/2000/svg">
<path d="M5 5H12M5 8H8.5M5.43236 12.7471L8.00386 14.2165C8.31129 14.3922 8.68871 14.3922 8.99614 14.2165L11.5676 12.7471C11.8399 12.5915 12.1694 12.5726 12.4577 12.6962L14.1061 13.4026C14.7659 13.6854 15.5 13.2014 15.5 12.4835V2C15.5 1.44772 15.0523 1 14.5 1H2.5C1.94772 1 1.5 1.44772 1.5 2V12.4835C1.5 13.2014 2.23405 13.6854 2.89392 13.4026L4.5423 12.6962C4.83055 12.5726 5.16006 12.5915 5.43236 12.7471Z" stroke="#AEFB30" stroke-width="2"/>
</svg>
