<svg width="17" height="16" viewBox="0 0 17 16" fill="none" xmlns="http://www.w3.org/2000/svg">
<path d="M1.53223 1.12817V0.128174C0.979942 0.128174 0.532227 0.575889 0.532227 1.12817L1.53223 1.12817ZM15.5322 1.12817H16.5322C16.5322 0.575889 16.0845 0.128174 15.5322 0.128174V1.12817ZM15.5322 11.4762V12.4762C16.0845 12.4762 16.5322 12.0284 16.5322 11.4762H15.5322ZM4.55311 11.4762V10.4762C4.33339 10.4762 4.11979 10.5485 3.94531 10.6821L4.55311 11.4762ZM1.53223 13.7884H0.532227V15.8131L2.14003 14.5825L1.53223 13.7884ZM1.53223 2.12817H15.5322V0.128174H1.53223V2.12817ZM14.5322 1.12817V11.4762H16.5322V1.12817H14.5322ZM15.5322 10.4762H4.55311V12.4762H15.5322V10.4762ZM3.94531 10.6821L0.924424 12.9943L2.14003 14.5825L5.16091 12.2702L3.94531 10.6821ZM2.53223 13.7884V1.12817H0.532227V13.7884H2.53223Z" fill="#AEFB30"/>
</svg>
