<svg width="149" height="16" viewBox="0 0 149 16" fill="none" xmlns="http://www.w3.org/2000/svg">
<path d="M0.846863 0.0625L8.42434 15.0938H14.4863L17.5173 8.17938L20.5483 15.0938H26.6103L33.8847 0.0625H29.0351L23.5793 11.4863L19.0328 1.86625H16.0018L11.1522 11.4863L5.69645 0.0625H0.846863Z" fill="white"/>
<path fill-rule="evenodd" clip-rule="evenodd" d="M34.1878 5.47375C34.1878 2.4852 36.6304 0.0625 39.6436 0.0625H56.0109C59.0241 0.0625 61.4667 2.4852 61.4667 5.47375V9.6825C61.4667 12.6711 59.0241 15.0938 56.0109 15.0938H39.6436C36.6304 15.0938 34.1878 12.6711 34.1878 9.6825V5.47375ZM39.6436 4.8725H56.0109C56.3457 4.8725 56.6171 5.14169 56.6171 5.47375V9.6825C56.6171 10.0146 56.3457 10.2838 56.0109 10.2838H39.6436C39.3088 10.2838 39.0374 10.0146 39.0374 9.6825V5.47375C39.0374 5.14169 39.3088 4.8725 39.6436 4.8725Z" fill="white"/>
<path fill-rule="evenodd" clip-rule="evenodd" d="M92.989 0.0625V15.0938H113.6C116.613 15.0938 119.056 12.6711 119.056 9.6825V5.47375C119.056 2.4852 116.613 0.0625 113.6 0.0625H92.989ZM113.6 4.8725H97.8386V10.2838H113.6C113.935 10.2838 114.206 10.0146 114.206 9.6825V5.47375C114.206 5.14169 113.935 4.8725 113.6 4.8725Z" fill="white"/>
<path fill-rule="evenodd" clip-rule="evenodd" d="M86.1531 12.6694C88.626 12.4496 90.5643 10.3887 90.5643 7.87875V4.8725C90.5643 2.21601 88.393 0.0625 85.7147 0.0625H64.4977V15.0938H69.3473V12.6888H80.8651L82.9868 15.0938H88.7457L86.1531 12.6694ZM85.7147 4.8725H69.3473V7.87875H85.7147V4.8725Z" fill="white"/>
<path d="M124.511 9.6825L121.48 0.0625H125.724L127.429 5.47375L142.205 5.47375L143.91 0.0625H148.153L145.122 9.6825H137.242V15.0938H132.392V9.6825H124.511Z" fill="white"/>
</svg>
