<svg width="25" height="25" viewBox="0 0 25 25" fill="none" xmlns="http://www.w3.org/2000/svg">
<g id="notification" opacity="0.5">
<path id="Vector" d="M10.2401 23.099H14.5824M4.06061 17.8929C4.0606 17.2182 4.36401 16.662 4.99635 15.9141C6.04829 14.6699 6.81638 14.0632 6.81638 12.4354C6.81638 6.19473 9.28393 5.08203 12.3278 5.08203C15.3717 5.08203 17.8392 5.9241 17.8392 12.4354C17.8392 14.0632 18.6073 14.6699 19.6592 15.9141C20.2916 16.662 20.595 17.2182 20.595 17.8929C20.595 19.2677 19.3424 19.5593 18.215 19.5593H6.44054C5.31321 19.5593 4.06062 19.2677 4.06061 17.8929Z" stroke="white" stroke-width="3.00625" stroke-linecap="round"/>
<path id="Ellipse 617" d="M1.54596 7.25687C1.54596 5.03702 2.74896 3.09816 4.53858 2.05664" stroke="white" stroke-width="3.00625" stroke-linecap="round"/>
<path id="Ellipse 618" d="M22.5359 7.25687C22.5359 5.03702 21.3329 3.09816 19.5433 2.05664" stroke="white" stroke-width="3.00625" stroke-linecap="round"/>
</g>
</svg>
