<svg width="229" height="140" viewBox="0 0 229 140" fill="none" xmlns="http://www.w3.org/2000/svg">
<path d="M209.636 27C220.33 27 229 35.6695 229 46.364C229 57.0584 220.33 65.7279 209.636 65.7279L19.364 65.7279C8.66954 65.7279 -1.53179e-06 57.0584 -9.86799e-07 46.364C-4.41805e-07 35.6695 8.66954 27 19.364 27L209.636 27Z" fill="#69A4DB"/>
<path d="M36.97 1.7H34.52V8H33.62V1.7H31.17V0.9H36.97V1.7ZM37.032 8V2.79H37.912V6.82L40.832 2.78H41.632V8H40.752V4.05L37.872 8H37.032ZM43.0281 8V2.78H47.3581V8H46.4781V3.56H43.9081V8H43.0281ZM52.9396 8.07C52.4329 8.07 52.0029 7.97667 51.6496 7.79C51.3029 7.59667 51.0363 7.33 50.8496 6.99L51.5696 6.67C51.6896 6.88333 51.8596 7.05 52.0796 7.17C52.3063 7.29 52.5796 7.35 52.8996 7.35C53.2796 7.35 53.5796 7.26667 53.7996 7.1C54.0196 6.93333 54.1296 6.71 54.1296 6.43C54.1296 6.17667 54.0396 5.97333 53.8596 5.82C53.6863 5.66 53.4396 5.57667 53.1196 5.57H52.5896V4.99H53.1496C53.2896 4.99 53.4129 4.95667 53.5196 4.89C53.6329 4.81667 53.7196 4.72 53.7796 4.6C53.8463 4.48 53.8796 4.34667 53.8796 4.2C53.8796 3.96667 53.7963 3.78 53.6296 3.64C53.4629 3.49333 53.2129 3.42 52.8796 3.42C52.6063 3.42 52.3763 3.47333 52.1896 3.58C52.0096 3.68667 51.8629 3.84667 51.7496 4.06L51.0796 3.7C51.2463 3.38667 51.4863 3.14333 51.7996 2.97C52.1196 2.79 52.4929 2.7 52.9196 2.7C53.2596 2.7 53.5596 2.75667 53.8196 2.87C54.0863 2.97667 54.2929 3.13333 54.4396 3.34C54.5929 3.54667 54.6696 3.79667 54.6696 4.09C54.6696 4.33667 54.6096 4.56667 54.4896 4.78C54.3763 4.98667 54.2063 5.14333 53.9796 5.25C54.2929 5.34333 54.5329 5.50667 54.6996 5.74C54.8663 5.96667 54.9496 6.23667 54.9496 6.55C54.9496 6.87 54.8629 7.14333 54.6896 7.37C54.5163 7.59667 54.2796 7.77 53.9796 7.89C53.6796 8.01 53.3329 8.07 52.9396 8.07ZM55.5969 6.49C55.5969 6.15667 55.6902 5.87 55.8769 5.63C56.0702 5.38333 56.3335 5.19333 56.6669 5.06C57.0002 4.92667 57.3869 4.86 57.8269 4.86C58.0602 4.86 58.3069 4.88 58.5669 4.92C58.8269 4.95333 59.0569 5.00667 59.2569 5.08V4.7C59.2569 4.3 59.1369 3.98667 58.8969 3.76C58.6569 3.52667 58.3169 3.41 57.8769 3.41C57.5902 3.41 57.3135 3.46333 57.0469 3.57C56.7869 3.67 56.5102 3.81667 56.2169 4.01L55.8969 3.39C56.2369 3.15667 56.5769 2.98333 56.9169 2.87C57.2569 2.75 57.6102 2.69 57.9769 2.69C58.6435 2.69 59.1702 2.87667 59.5569 3.25C59.9435 3.61667 60.1369 4.13 60.1369 4.79V7C60.1369 7.10667 60.1569 7.18667 60.1969 7.24C60.2435 7.28667 60.3169 7.31333 60.4169 7.32V8C60.3302 8.01333 60.2535 8.02333 60.1869 8.03C60.1269 8.03667 60.0769 8.04 60.0369 8.04C59.8302 8.04 59.6735 7.98333 59.5669 7.87C59.4669 7.75667 59.4102 7.63667 59.3969 7.51L59.3769 7.18C59.1502 7.47333 58.8535 7.7 58.4869 7.86C58.1202 8.02 57.7569 8.1 57.3969 8.1C57.0502 8.1 56.7402 8.03 56.4669 7.89C56.1935 7.74333 55.9802 7.55 55.8269 7.31C55.6735 7.06333 55.5969 6.79 55.5969 6.49ZM58.9969 6.86C59.0769 6.76667 59.1402 6.67333 59.1869 6.58C59.2335 6.48 59.2569 6.39667 59.2569 6.33V5.68C59.0502 5.6 58.8335 5.54 58.6069 5.5C58.3802 5.45333 58.1569 5.43 57.9369 5.43C57.4902 5.43 57.1269 5.52 56.8469 5.7C56.5735 5.87333 56.4369 6.11333 56.4369 6.42C56.4369 6.58667 56.4802 6.75 56.5669 6.91C56.6602 7.06333 56.7935 7.19 56.9669 7.29C57.1469 7.39 57.3669 7.44 57.6269 7.44C57.9002 7.44 58.1602 7.38667 58.4069 7.28C58.6535 7.16667 58.8502 7.02667 58.9969 6.86ZM61.534 8V2.78H64.234C64.5473 2.78 64.8073 2.84333 65.014 2.97C65.2207 3.09 65.374 3.24667 65.474 3.44C65.5807 3.63333 65.634 3.84 65.634 4.06C65.634 4.34 65.5673 4.59333 65.434 4.82C65.3007 5.04 65.1073 5.20667 64.854 5.32C65.154 5.40667 65.3973 5.56333 65.584 5.79C65.7707 6.01 65.864 6.28333 65.864 6.61C65.864 6.90333 65.794 7.15333 65.654 7.36C65.514 7.56667 65.3173 7.72667 65.064 7.84C64.8107 7.94667 64.5173 8 64.184 8H61.534ZM62.374 7.38H64.164C64.324 7.38 64.4673 7.34 64.594 7.26C64.7273 7.18 64.8307 7.07333 64.904 6.94C64.9773 6.80667 65.014 6.66667 65.014 6.52C65.014 6.36 64.9773 6.21667 64.904 6.09C64.8373 5.95667 64.7407 5.85333 64.614 5.78C64.494 5.7 64.354 5.66 64.194 5.66H62.374V7.38ZM62.374 5.08H64.004C64.164 5.08 64.304 5.04 64.424 4.96C64.544 4.87333 64.6373 4.76333 64.704 4.63C64.7707 4.49667 64.804 4.35667 64.804 4.21C64.804 3.99 64.7307 3.8 64.584 3.64C64.444 3.48 64.2607 3.4 64.034 3.4H62.374V5.08ZM66.4034 9.23V7.22H66.5134C66.6601 7.22 66.7934 7.17667 66.9134 7.09C67.0401 7.00333 67.1501 6.85333 67.2434 6.64C67.3434 6.42 67.4234 6.12 67.4834 5.74C67.5434 5.36 67.5834 4.87667 67.6034 4.29L67.6534 2.78H71.2034V7.22H71.9134V9.23H71.1334V8H67.1834V9.23H66.4034ZM67.7434 7.22H70.3234V3.56H68.4334L68.4034 4.37C68.3834 4.93667 68.3434 5.41333 68.2834 5.8C68.2301 6.18 68.1568 6.48333 68.0634 6.71C67.9768 6.93667 67.8701 7.10667 67.7434 7.22ZM72.4816 6.49C72.4816 6.15667 72.575 5.87 72.7616 5.63C72.955 5.38333 73.2183 5.19333 73.5516 5.06C73.885 4.92667 74.2716 4.86 74.7116 4.86C74.945 4.86 75.1916 4.88 75.4516 4.92C75.7116 4.95333 75.9416 5.00667 76.1416 5.08V4.7C76.1416 4.3 76.0216 3.98667 75.7816 3.76C75.5416 3.52667 75.2016 3.41 74.7616 3.41C74.475 3.41 74.1983 3.46333 73.9316 3.57C73.6716 3.67 73.395 3.81667 73.1016 4.01L72.7816 3.39C73.1216 3.15667 73.4616 2.98333 73.8016 2.87C74.1416 2.75 74.495 2.69 74.8616 2.69C75.5283 2.69 76.055 2.87667 76.4416 3.25C76.8283 3.61667 77.0216 4.13 77.0216 4.79V7C77.0216 7.10667 77.0416 7.18667 77.0816 7.24C77.1283 7.28667 77.2016 7.31333 77.3016 7.32V8C77.215 8.01333 77.1383 8.02333 77.0716 8.03C77.0116 8.03667 76.9616 8.04 76.9216 8.04C76.715 8.04 76.5583 7.98333 76.4516 7.87C76.3516 7.75667 76.295 7.63667 76.2816 7.51L76.2616 7.18C76.035 7.47333 75.7383 7.7 75.3716 7.86C75.005 8.02 74.6416 8.1 74.2816 8.1C73.935 8.1 73.625 8.03 73.3516 7.89C73.0783 7.74333 72.865 7.55 72.7116 7.31C72.5583 7.06333 72.4816 6.79 72.4816 6.49ZM75.8816 6.86C75.9616 6.76667 76.025 6.67333 76.0716 6.58C76.1183 6.48 76.1416 6.39667 76.1416 6.33V5.68C75.935 5.6 75.7183 5.54 75.4916 5.5C75.265 5.45333 75.0416 5.43 74.8216 5.43C74.375 5.43 74.0116 5.52 73.7316 5.7C73.4583 5.87333 73.3216 6.11333 73.3216 6.42C73.3216 6.58667 73.365 6.75 73.4516 6.91C73.545 7.06333 73.6783 7.19 73.8516 7.29C74.0316 7.39 74.2516 7.44 74.5116 7.44C74.785 7.44 75.045 7.38667 75.2916 7.28C75.5383 7.16667 75.735 7.02667 75.8816 6.86ZM78.4188 8V2.78H79.2988V4.94H82.0188V2.78H82.8988V8H82.0188V5.72H79.2988V8H78.4188ZM84.3074 8V2.78H85.1874V4.94H87.9074V2.78H88.7874V8H87.9074V5.72H85.1874V8H84.3074ZM89.8161 8L91.2961 5.9C90.9561 5.83333 90.6828 5.67333 90.4761 5.42C90.2694 5.16 90.1661 4.81333 90.1661 4.38C90.1661 4.06667 90.2394 3.79 90.3861 3.55C90.5328 3.31 90.7361 3.12 90.9961 2.98C91.2628 2.84 91.5728 2.77 91.9261 2.77H94.0661V8H93.1861V6.04H92.1661L90.7861 8H89.8161ZM91.9861 5.39H93.1861V3.46H92.0861C91.7728 3.46 91.5228 3.55 91.3361 3.73C91.1494 3.90333 91.0561 4.12667 91.0561 4.4C91.0561 4.67333 91.1328 4.90667 91.2861 5.1C91.4461 5.29333 91.6794 5.39 91.9861 5.39Z" fill="black"/>
<path d="M132.85 8V0.9H133.75V3.97H134.7L137.04 0.9H138.08L135.44 4.34L138.26 8H137.16L134.72 4.79H133.75V8H132.85ZM139.224 8V2.78H140.104V8H139.224ZM139.224 1.8V0.7H140.104V1.8H139.224ZM141.068 8.04V7.25C141.242 7.25 141.395 7.20667 141.528 7.12C141.668 7.02667 141.792 6.87333 141.898 6.66C142.005 6.44 142.088 6.14 142.148 5.76C142.215 5.37333 142.258 4.88333 142.278 4.29L142.338 2.78H145.888V8H145.008V3.56H143.118L143.098 4.37C143.072 5.08333 143.012 5.67667 142.918 6.15C142.825 6.62333 142.695 6.99667 142.528 7.27C142.362 7.54333 142.155 7.74 141.908 7.86C141.668 7.98 141.388 8.04 141.068 8.04ZM147.3 8V2.78H148.18V4.56H149.48C150.093 4.56 150.556 4.71667 150.87 5.03C151.19 5.33667 151.35 5.74 151.35 6.24C151.35 6.57333 151.28 6.87333 151.14 7.14C151.006 7.40667 150.806 7.61667 150.54 7.77C150.273 7.92333 149.94 8 149.54 8H147.3ZM148.18 7.31H149.42C149.666 7.31 149.863 7.26333 150.01 7.17C150.163 7.07 150.276 6.94 150.35 6.78C150.423 6.62 150.46 6.44667 150.46 6.26C150.46 6.08 150.426 5.91333 150.36 5.76C150.293 5.60667 150.183 5.48333 150.03 5.39C149.876 5.29667 149.666 5.25 149.4 5.25H148.18V7.31ZM152.3 8V2.78H153.18V4.93H153.76L155.4 2.78H156.4L154.45 5.31L156.63 8H155.61L153.76 5.74H153.18V8H152.3ZM157.495 8V2.78H158.375V8H157.495ZM157.495 1.8V0.7H158.375V1.8H157.495ZM162.11 8.1C161.717 8.1 161.357 8.03 161.03 7.89C160.71 7.74333 160.43 7.54333 160.19 7.29C159.957 7.03667 159.773 6.74667 159.64 6.42C159.513 6.09333 159.45 5.74667 159.45 5.38C159.45 4.88667 159.56 4.43667 159.78 4.03C160 3.62333 160.31 3.3 160.71 3.06C161.11 2.81333 161.573 2.69 162.1 2.69C162.613 2.69 163.06 2.80667 163.44 3.04C163.827 3.26667 164.113 3.57333 164.3 3.96L163.44 4.23C163.307 3.98333 163.12 3.79333 162.88 3.66C162.64 3.52 162.373 3.45 162.08 3.45C161.76 3.45 161.467 3.53333 161.2 3.7C160.94 3.86667 160.733 4.09667 160.58 4.39C160.427 4.67667 160.35 5.00667 160.35 5.38C160.35 5.74667 160.427 6.08 160.58 6.38C160.74 6.67333 160.95 6.90667 161.21 7.08C161.477 7.25333 161.77 7.34 162.09 7.34C162.297 7.34 162.493 7.30333 162.68 7.23C162.873 7.15667 163.04 7.06 163.18 6.94C163.327 6.81333 163.427 6.67667 163.48 6.53L164.34 6.79C164.233 7.04333 164.07 7.27 163.85 7.47C163.637 7.66333 163.38 7.81667 163.08 7.93C162.787 8.04333 162.463 8.1 162.11 8.1ZM166.607 8V3.56H164.807V2.78H169.287V3.56H167.487V8H166.607ZM170.161 8V2.78H171.041V4.56H172.341C172.954 4.56 173.418 4.71667 173.731 5.03C174.051 5.33667 174.211 5.74 174.211 6.24C174.211 6.57333 174.141 6.87333 174.001 7.14C173.868 7.40667 173.668 7.61667 173.401 7.77C173.134 7.92333 172.801 8 172.401 8H170.161ZM171.041 7.31H172.281C172.528 7.31 172.724 7.26333 172.871 7.17C173.024 7.07 173.138 6.94 173.211 6.78C173.284 6.62 173.321 6.44667 173.321 6.26C173.321 6.08 173.288 5.91333 173.221 5.76C173.154 5.60667 173.044 5.48333 172.891 5.39C172.738 5.29667 172.528 5.25 172.261 5.25H171.041V7.31ZM180.16 8.1C179.3 8.1 178.65 7.84 178.21 7.32C177.77 6.8 177.55 6.06667 177.55 5.12C177.55 4.47333 177.604 3.93 177.71 3.49C177.817 3.04333 177.977 2.67667 178.19 2.39C178.404 2.09667 178.667 1.86 178.98 1.68C179.294 1.49333 179.654 1.34 180.06 1.22L182.27 0.549999L182.32 1.31L180.17 1.96C179.804 2.08 179.497 2.23333 179.25 2.42C179.004 2.60667 178.81 2.84667 178.67 3.14C178.53 3.43333 178.437 3.81 178.39 4.27C178.564 3.91667 178.824 3.64333 179.17 3.45C179.517 3.25 179.92 3.15 180.38 3.15C180.874 3.15 181.297 3.25333 181.65 3.46C182.01 3.66 182.284 3.94333 182.47 4.31C182.664 4.67 182.76 5.08667 182.76 5.56C182.76 6.06667 182.66 6.51 182.46 6.89C182.26 7.27 181.967 7.56667 181.58 7.78C181.194 7.99333 180.72 8.1 180.16 8.1ZM180.16 7.34C180.7 7.34 181.117 7.18333 181.41 6.87C181.71 6.55 181.86 6.12667 181.86 5.6C181.86 5.08667 181.714 4.67 181.42 4.35C181.127 4.03 180.707 3.87 180.16 3.87C179.84 3.87 179.55 3.93667 179.29 4.07C179.037 4.20333 178.834 4.4 178.68 4.66C178.534 4.91333 178.46 5.22667 178.46 5.6C178.46 5.93333 178.524 6.23333 178.65 6.5C178.784 6.76 178.977 6.96667 179.23 7.12C179.484 7.26667 179.794 7.34 180.16 7.34ZM183.423 6.49C183.423 6.15667 183.516 5.87 183.703 5.63C183.896 5.38333 184.16 5.19333 184.493 5.06C184.826 4.92667 185.213 4.86 185.653 4.86C185.886 4.86 186.133 4.88 186.393 4.92C186.653 4.95333 186.883 5.00667 187.083 5.08V4.7C187.083 4.3 186.963 3.98667 186.723 3.76C186.483 3.52667 186.143 3.41 185.703 3.41C185.416 3.41 185.14 3.46333 184.873 3.57C184.613 3.67 184.336 3.81667 184.043 4.01L183.723 3.39C184.063 3.15667 184.403 2.98333 184.743 2.87C185.083 2.75 185.436 2.69 185.803 2.69C186.47 2.69 186.996 2.87667 187.383 3.25C187.77 3.61667 187.963 4.13 187.963 4.79V7C187.963 7.10667 187.983 7.18667 188.023 7.24C188.07 7.28667 188.143 7.31333 188.243 7.32V8C188.156 8.01333 188.08 8.02333 188.013 8.03C187.953 8.03667 187.903 8.04 187.863 8.04C187.656 8.04 187.5 7.98333 187.393 7.87C187.293 7.75667 187.236 7.63667 187.223 7.51L187.203 7.18C186.976 7.47333 186.68 7.7 186.313 7.86C185.946 8.02 185.583 8.1 185.223 8.1C184.876 8.1 184.566 8.03 184.293 7.89C184.02 7.74333 183.806 7.55 183.653 7.31C183.5 7.06333 183.423 6.79 183.423 6.49ZM186.823 6.86C186.903 6.76667 186.966 6.67333 187.013 6.58C187.06 6.48 187.083 6.39667 187.083 6.33V5.68C186.876 5.6 186.66 5.54 186.433 5.5C186.206 5.45333 185.983 5.43 185.763 5.43C185.316 5.43 184.953 5.52 184.673 5.7C184.4 5.87333 184.263 6.11333 184.263 6.42C184.263 6.58667 184.306 6.75 184.393 6.91C184.486 7.06333 184.62 7.19 184.793 7.29C184.973 7.39 185.193 7.44 185.453 7.44C185.726 7.44 185.986 7.38667 186.233 7.28C186.48 7.16667 186.676 7.02667 186.823 6.86ZM188.91 8.04V7.25C189.083 7.25 189.237 7.20667 189.37 7.12C189.51 7.02667 189.633 6.87333 189.74 6.66C189.847 6.44 189.93 6.14 189.99 5.76C190.057 5.37333 190.1 4.88333 190.12 4.29L190.18 2.78H193.73V8H192.85V3.56H190.96L190.94 4.37C190.913 5.08333 190.853 5.67667 190.76 6.15C190.667 6.62333 190.537 6.99667 190.37 7.27C190.203 7.54333 189.997 7.74 189.75 7.86C189.51 7.98 189.23 8.04 188.91 8.04ZM195.151 8V2.78H196.031V8H195.151ZM195.151 1.8V0.7H196.031V1.8H195.151ZM197.446 8V2.78H200.146C200.459 2.78 200.719 2.84333 200.926 2.97C201.133 3.09 201.286 3.24667 201.386 3.44C201.493 3.63333 201.546 3.84 201.546 4.06C201.546 4.34 201.479 4.59333 201.346 4.82C201.213 5.04 201.019 5.20667 200.766 5.32C201.066 5.40667 201.309 5.56333 201.496 5.79C201.683 6.01 201.776 6.28333 201.776 6.61C201.776 6.90333 201.706 7.15333 201.566 7.36C201.426 7.56667 201.229 7.72667 200.976 7.84C200.723 7.94667 200.429 8 200.096 8H197.446ZM198.286 7.38H200.076C200.236 7.38 200.379 7.34 200.506 7.26C200.639 7.18 200.743 7.07333 200.816 6.94C200.889 6.80667 200.926 6.66667 200.926 6.52C200.926 6.36 200.889 6.21667 200.816 6.09C200.749 5.95667 200.653 5.85333 200.526 5.78C200.406 5.7 200.266 5.66 200.106 5.66H198.286V7.38ZM198.286 5.08H199.916C200.076 5.08 200.216 5.04 200.336 4.96C200.456 4.87333 200.549 4.76333 200.616 4.63C200.683 4.49667 200.716 4.35667 200.716 4.21C200.716 3.99 200.643 3.8 200.496 3.64C200.356 3.48 200.173 3.4 199.946 3.4H198.286V5.08Z" fill="black"/>
<path d="M0.35 92.36V90.2H0.67C0.856667 90.2 1.02 90.1267 1.16 89.98C1.3 89.8267 1.42 89.5867 1.52 89.26C1.62 88.9267 1.7 88.4833 1.76 87.93C1.82 87.3767 1.86333 86.6933 1.89 85.88L1.94 83.9H6.34V90.2H7.22V92.36H6.42V91H1.15V92.36H0.35ZM1.87 90.2H5.44V84.7H2.77L2.74 85.99C2.72 86.83 2.67667 87.5333 2.61 88.1C2.54333 88.6667 2.45 89.12 2.33 89.46C2.21 89.8 2.05667 90.0467 1.87 90.2ZM7.81836 91.04V90.25C7.99169 90.25 8.14503 90.2067 8.27836 90.12C8.41836 90.0267 8.54169 89.8733 8.64836 89.66C8.75503 89.44 8.83836 89.14 8.89836 88.76C8.96503 88.3733 9.00836 87.8833 9.02836 87.29L9.08836 85.78H12.6384V91H11.7584V86.56H9.86836L9.84836 87.37C9.82169 88.0833 9.76169 88.6767 9.66836 89.15C9.57503 89.6233 9.44503 89.9967 9.27836 90.27C9.11169 90.5433 8.90503 90.74 8.65836 90.86C8.41836 90.98 8.13836 91.04 7.81836 91.04ZM13.6696 91L15.1496 88.9C14.8096 88.8333 14.5363 88.6733 14.3296 88.42C14.1229 88.16 14.0196 87.8133 14.0196 87.38C14.0196 87.0667 14.0929 86.79 14.2396 86.55C14.3863 86.31 14.5896 86.12 14.8496 85.98C15.1163 85.84 15.4263 85.77 15.7796 85.77H17.9196V91H17.0396V89.04H16.0196L14.6396 91H13.6696ZM15.8396 88.39H17.0396V86.46H15.9396C15.6263 86.46 15.3763 86.55 15.1896 86.73C15.0029 86.9033 14.9096 87.1267 14.9096 87.4C14.9096 87.6733 14.9863 87.9067 15.1396 88.1C15.2996 88.2933 15.5329 88.39 15.8396 88.39ZM21.8621 91V85.78H26.1921V91H25.3121V86.56H22.7421V91H21.8621ZM29.9243 91.1C29.531 91.1 29.171 91.03 28.8443 90.89C28.5243 90.7433 28.2443 90.5467 28.0043 90.3C27.771 90.0467 27.5876 89.7567 27.4543 89.43C27.3276 89.1033 27.2643 88.7567 27.2643 88.39C27.2643 87.8967 27.3776 87.4467 27.6043 87.04C27.831 86.6333 28.1443 86.3067 28.5443 86.06C28.951 85.8133 29.4143 85.69 29.9343 85.69C30.461 85.69 30.9176 85.8167 31.3043 86.07C31.6976 86.3167 32.001 86.6433 32.2143 87.05C32.4343 87.45 32.5443 87.8833 32.5443 88.35C32.5443 88.4167 32.541 88.4833 32.5343 88.55C32.5343 88.61 32.531 88.6567 32.5243 88.69H28.1943C28.221 89.03 28.3143 89.3333 28.4743 89.6C28.641 89.86 28.8543 90.0667 29.1143 90.22C29.3743 90.3667 29.6543 90.44 29.9543 90.44C30.2743 90.44 30.5743 90.36 30.8543 90.2C31.141 90.04 31.3376 89.83 31.4443 89.57L32.2043 89.78C32.091 90.0333 31.921 90.26 31.6943 90.46C31.4743 90.66 31.211 90.8167 30.9043 90.93C30.6043 91.0433 30.2776 91.1 29.9243 91.1ZM28.1643 88.08H31.7243C31.6976 87.74 31.601 87.44 31.4343 87.18C31.2676 86.92 31.0543 86.7167 30.7943 86.57C30.5343 86.4233 30.2476 86.35 29.9343 86.35C29.6276 86.35 29.3443 86.4233 29.0843 86.57C28.8243 86.7167 28.611 86.92 28.4443 87.18C28.2843 87.44 28.191 87.74 28.1643 88.08ZM36.3325 91.1C35.9058 91.1 35.5258 90.9933 35.1925 90.78C34.8592 90.5667 34.5958 90.2967 34.4025 89.97V93.13H33.5225V85.78H34.3025V86.76C34.5092 86.44 34.7792 86.1833 35.1125 85.99C35.4458 85.79 35.8092 85.69 36.2025 85.69C36.5625 85.69 36.8925 85.7633 37.1925 85.91C37.4925 86.0567 37.7525 86.2567 37.9725 86.51C38.1925 86.7633 38.3625 87.0533 38.4825 87.38C38.6092 87.7 38.6725 88.0367 38.6725 88.39C38.6725 88.8833 38.5725 89.3367 38.3725 89.75C38.1792 90.1633 37.9058 90.4933 37.5525 90.74C37.1992 90.98 36.7925 91.1 36.3325 91.1ZM36.0625 90.34C36.3225 90.34 36.5558 90.2867 36.7625 90.18C36.9758 90.0667 37.1558 89.92 37.3025 89.74C37.4558 89.5533 37.5725 89.3433 37.6525 89.11C37.7325 88.8767 37.7725 88.6367 37.7725 88.39C37.7725 88.13 37.7258 87.8833 37.6325 87.65C37.5458 87.4167 37.4192 87.21 37.2525 87.03C37.0925 86.85 36.9025 86.71 36.6825 86.61C36.4692 86.5033 36.2358 86.45 35.9825 86.45C35.8225 86.45 35.6558 86.48 35.4825 86.54C35.3158 86.6 35.1558 86.6867 35.0025 86.8C34.8492 86.9067 34.7192 87.03 34.6125 87.17C34.5058 87.31 34.4358 87.46 34.4025 87.62V89.11C34.5025 89.3367 34.6358 89.5433 34.8025 89.73C34.9692 89.9167 35.1625 90.0667 35.3825 90.18C35.6025 90.2867 35.8292 90.34 36.0625 90.34ZM42.063 91.1C41.6696 91.1 41.3096 91.03 40.983 90.89C40.663 90.7433 40.383 90.5467 40.143 90.3C39.9096 90.0467 39.7263 89.7567 39.593 89.43C39.4663 89.1033 39.403 88.7567 39.403 88.39C39.403 87.8967 39.5163 87.4467 39.743 87.04C39.9696 86.6333 40.283 86.3067 40.683 86.06C41.0896 85.8133 41.553 85.69 42.073 85.69C42.5996 85.69 43.0563 85.8167 43.443 86.07C43.8363 86.3167 44.1396 86.6433 44.353 87.05C44.573 87.45 44.683 87.8833 44.683 88.35C44.683 88.4167 44.6796 88.4833 44.673 88.55C44.673 88.61 44.6696 88.6567 44.663 88.69H40.333C40.3596 89.03 40.453 89.3333 40.613 89.6C40.7796 89.86 40.993 90.0667 41.253 90.22C41.513 90.3667 41.793 90.44 42.093 90.44C42.413 90.44 42.713 90.36 42.993 90.2C43.2796 90.04 43.4763 89.83 43.583 89.57L44.343 89.78C44.2296 90.0333 44.0596 90.26 43.833 90.46C43.613 90.66 43.3496 90.8167 43.043 90.93C42.743 91.0433 42.4163 91.1 42.063 91.1ZM40.303 88.08H43.863C43.8363 87.74 43.7396 87.44 43.573 87.18C43.4063 86.92 43.193 86.7167 42.933 86.57C42.673 86.4233 42.3863 86.35 42.073 86.35C41.7663 86.35 41.483 86.4233 41.223 86.57C40.963 86.7167 40.7496 86.92 40.583 87.18C40.423 87.44 40.3296 87.74 40.303 88.08ZM45.6512 91V85.78H46.5612L48.5012 89.2L50.4512 85.78H51.3412V91H50.5012V87.05L48.7812 90.07H48.2212L46.4912 87.05V91H45.6512ZM55.0408 91.1C54.6474 91.1 54.2908 91.03 53.9708 90.89C53.6508 90.7433 53.3741 90.5467 53.1408 90.3C52.9074 90.0467 52.7274 89.7567 52.6008 89.43C52.4741 89.1033 52.4108 88.76 52.4108 88.4C52.4108 88.0333 52.4741 87.6867 52.6008 87.36C52.7274 87.0333 52.9074 86.7467 53.1408 86.5C53.3741 86.2467 53.6508 86.05 53.9708 85.91C54.2974 85.7633 54.6541 85.69 55.0408 85.69C55.4341 85.69 55.7908 85.7633 56.1108 85.91C56.4308 86.05 56.7074 86.2467 56.9408 86.5C57.1808 86.7467 57.3641 87.0333 57.4908 87.36C57.6174 87.6867 57.6808 88.0333 57.6808 88.4C57.6808 88.76 57.6174 89.1033 57.4908 89.43C57.3641 89.7567 57.1841 90.0467 56.9508 90.3C56.7174 90.5467 56.4374 90.7433 56.1108 90.89C55.7908 91.03 55.4341 91.1 55.0408 91.1ZM53.3108 88.41C53.3108 88.77 53.3874 89.0967 53.5408 89.39C53.7008 89.6833 53.9108 89.9167 54.1708 90.09C54.4308 90.2567 54.7208 90.34 55.0408 90.34C55.3608 90.34 55.6508 90.2533 55.9108 90.08C56.1774 89.9067 56.3874 89.6733 56.5408 89.38C56.7008 89.08 56.7808 88.75 56.7808 88.39C56.7808 88.03 56.7008 87.7033 56.5408 87.41C56.3874 87.1167 56.1774 86.8833 55.9108 86.71C55.6508 86.5367 55.3608 86.45 55.0408 86.45C54.7208 86.45 54.4308 86.54 54.1708 86.72C53.9108 86.8933 53.7008 87.1267 53.5408 87.42C53.3874 87.7133 53.3108 88.0433 53.3108 88.41ZM58.7371 91V85.78H61.9571V86.56H59.6171V91H58.7371ZM62.8484 91V85.79H63.7284V89.82L66.6484 85.78H67.4484V91H66.5684V87.05L63.6884 91H62.8484ZM0.7 106V100.78H5.03V106H4.15V101.56H1.58V106H0.7ZM8.73219 106.1C8.33885 106.1 7.98219 106.03 7.66219 105.89C7.34219 105.743 7.06552 105.547 6.83219 105.3C6.59885 105.047 6.41885 104.757 6.29219 104.43C6.16552 104.103 6.10219 103.76 6.10219 103.4C6.10219 103.033 6.16552 102.687 6.29219 102.36C6.41885 102.033 6.59885 101.747 6.83219 101.5C7.06552 101.247 7.34219 101.05 7.66219 100.91C7.98885 100.763 8.34552 100.69 8.73219 100.69C9.12552 100.69 9.48219 100.763 9.80219 100.91C10.1222 101.05 10.3989 101.247 10.6322 101.5C10.8722 101.747 11.0555 102.033 11.1822 102.36C11.3089 102.687 11.3722 103.033 11.3722 103.4C11.3722 103.76 11.3089 104.103 11.1822 104.43C11.0555 104.757 10.8755 105.047 10.6422 105.3C10.4089 105.547 10.1289 105.743 9.80219 105.89C9.48219 106.03 9.12552 106.1 8.73219 106.1ZM7.00219 103.41C7.00219 103.77 7.07885 104.097 7.23219 104.39C7.39219 104.683 7.60219 104.917 7.86219 105.09C8.12219 105.257 8.41219 105.34 8.73219 105.34C9.05219 105.34 9.34219 105.253 9.60219 105.08C9.86885 104.907 10.0789 104.673 10.2322 104.38C10.3922 104.08 10.4722 103.75 10.4722 103.39C10.4722 103.03 10.3922 102.703 10.2322 102.41C10.0789 102.117 9.86885 101.883 9.60219 101.71C9.34219 101.537 9.05219 101.45 8.73219 101.45C8.41219 101.45 8.12219 101.54 7.86219 101.72C7.60219 101.893 7.39219 102.127 7.23219 102.42C7.07885 102.713 7.00219 103.043 7.00219 103.41ZM13.7085 106V101.56H11.9085V100.78H16.3885V101.56H14.5885V106H13.7085ZM20.0825 106.1C19.6558 106.1 19.2758 105.993 18.9425 105.78C18.6092 105.567 18.3458 105.297 18.1525 104.97V108.13H17.2725V100.78H18.0525V101.76C18.2592 101.44 18.5292 101.183 18.8625 100.99C19.1958 100.79 19.5592 100.69 19.9525 100.69C20.3125 100.69 20.6425 100.763 20.9425 100.91C21.2425 101.057 21.5025 101.257 21.7225 101.51C21.9425 101.763 22.1125 102.053 22.2325 102.38C22.3592 102.7 22.4225 103.037 22.4225 103.39C22.4225 103.883 22.3225 104.337 22.1225 104.75C21.9292 105.163 21.6558 105.493 21.3025 105.74C20.9492 105.98 20.5425 106.1 20.0825 106.1ZM19.8125 105.34C20.0725 105.34 20.3058 105.287 20.5125 105.18C20.7258 105.067 20.9058 104.92 21.0525 104.74C21.2058 104.553 21.3225 104.343 21.4025 104.11C21.4825 103.877 21.5225 103.637 21.5225 103.39C21.5225 103.13 21.4758 102.883 21.3825 102.65C21.2958 102.417 21.1692 102.21 21.0025 102.03C20.8425 101.85 20.6525 101.71 20.4325 101.61C20.2192 101.503 19.9858 101.45 19.7325 101.45C19.5725 101.45 19.4058 101.48 19.2325 101.54C19.0658 101.6 18.9058 101.687 18.7525 101.8C18.5992 101.907 18.4692 102.03 18.3625 102.17C18.2558 102.31 18.1858 102.46 18.1525 102.62V104.11C18.2525 104.337 18.3858 104.543 18.5525 104.73C18.7192 104.917 18.9125 105.067 19.1325 105.18C19.3525 105.287 19.5792 105.34 19.8125 105.34ZM23.503 106V100.78H24.383V106H23.503ZM23.503 99.8V98.7H24.383V99.8H23.503ZM28.2677 106.1C27.4077 106.1 26.7577 105.84 26.3177 105.32C25.8777 104.8 25.6577 104.067 25.6577 103.12C25.6577 102.473 25.711 101.93 25.8177 101.49C25.9243 101.043 26.0843 100.677 26.2977 100.39C26.511 100.097 26.7743 99.86 27.0877 99.68C27.401 99.4933 27.761 99.34 28.1677 99.22L30.3777 98.55L30.4277 99.31L28.2777 99.96C27.911 100.08 27.6043 100.233 27.3577 100.42C27.111 100.607 26.9177 100.847 26.7777 101.14C26.6377 101.433 26.5443 101.81 26.4977 102.27C26.671 101.917 26.931 101.643 27.2777 101.45C27.6243 101.25 28.0277 101.15 28.4877 101.15C28.981 101.15 29.4043 101.253 29.7577 101.46C30.1177 101.66 30.391 101.943 30.5777 102.31C30.771 102.67 30.8677 103.087 30.8677 103.56C30.8677 104.067 30.7677 104.51 30.5677 104.89C30.3677 105.27 30.0743 105.567 29.6877 105.78C29.301 105.993 28.8277 106.1 28.2677 106.1ZM28.2677 105.34C28.8077 105.34 29.2243 105.183 29.5177 104.87C29.8177 104.55 29.9677 104.127 29.9677 103.6C29.9677 103.087 29.821 102.67 29.5277 102.35C29.2343 102.03 28.8143 101.87 28.2677 101.87C27.9477 101.87 27.6577 101.937 27.3977 102.07C27.1443 102.203 26.941 102.4 26.7877 102.66C26.641 102.913 26.5677 103.227 26.5677 103.6C26.5677 103.933 26.631 104.233 26.7577 104.5C26.891 104.76 27.0843 104.967 27.3377 105.12C27.591 105.267 27.901 105.34 28.2677 105.34ZM31.9305 106V100.78H32.8105V102.94H35.5305V100.78H36.4105V106H35.5305V103.72H32.8105V106H31.9305ZM40.1091 106.1C39.7158 106.1 39.3591 106.03 39.0391 105.89C38.7191 105.743 38.4425 105.547 38.2091 105.3C37.9758 105.047 37.7958 104.757 37.6691 104.43C37.5425 104.103 37.4791 103.76 37.4791 103.4C37.4791 103.033 37.5425 102.687 37.6691 102.36C37.7958 102.033 37.9758 101.747 38.2091 101.5C38.4425 101.247 38.7191 101.05 39.0391 100.91C39.3658 100.763 39.7225 100.69 40.1091 100.69C40.5025 100.69 40.8591 100.763 41.1791 100.91C41.4991 101.05 41.7758 101.247 42.0091 101.5C42.2491 101.747 42.4325 102.033 42.5591 102.36C42.6858 102.687 42.7491 103.033 42.7491 103.4C42.7491 103.76 42.6858 104.103 42.5591 104.43C42.4325 104.757 42.2525 105.047 42.0191 105.3C41.7858 105.547 41.5058 105.743 41.1791 105.89C40.8591 106.03 40.5025 106.1 40.1091 106.1ZM38.3791 103.41C38.3791 103.77 38.4558 104.097 38.6091 104.39C38.7691 104.683 38.9791 104.917 39.2391 105.09C39.4991 105.257 39.7891 105.34 40.1091 105.34C40.4291 105.34 40.7191 105.253 40.9791 105.08C41.2458 104.907 41.4558 104.673 41.6091 104.38C41.7691 104.08 41.8491 103.75 41.8491 103.39C41.8491 103.03 41.7691 102.703 41.6091 102.41C41.4558 102.117 41.2458 101.883 40.9791 101.71C40.7191 101.537 40.4291 101.45 40.1091 101.45C39.7891 101.45 39.4991 101.54 39.2391 101.72C38.9791 101.893 38.7691 102.127 38.6091 102.42C38.4558 102.713 38.3791 103.043 38.3791 103.41ZM46.3348 106V100.78H49.0348C49.3481 100.78 49.6081 100.843 49.8148 100.97C50.0214 101.09 50.1748 101.247 50.2748 101.44C50.3814 101.633 50.4348 101.84 50.4348 102.06C50.4348 102.34 50.3681 102.593 50.2348 102.82C50.1014 103.04 49.9081 103.207 49.6548 103.32C49.9548 103.407 50.1981 103.563 50.3848 103.79C50.5714 104.01 50.6648 104.283 50.6648 104.61C50.6648 104.903 50.5948 105.153 50.4548 105.36C50.3148 105.567 50.1181 105.727 49.8648 105.84C49.6114 105.947 49.3181 106 48.9848 106H46.3348ZM47.1748 105.38H48.9648C49.1248 105.38 49.2681 105.34 49.3948 105.26C49.5281 105.18 49.6314 105.073 49.7048 104.94C49.7781 104.807 49.8148 104.667 49.8148 104.52C49.8148 104.36 49.7781 104.217 49.7048 104.09C49.6381 103.957 49.5414 103.853 49.4148 103.78C49.2948 103.7 49.1548 103.66 48.9948 103.66H47.1748V105.38ZM47.1748 103.08H48.8048C48.9648 103.08 49.1048 103.04 49.2248 102.96C49.3448 102.873 49.4381 102.763 49.5048 102.63C49.5714 102.497 49.6048 102.357 49.6048 102.21C49.6048 101.99 49.5314 101.8 49.3848 101.64C49.2448 101.48 49.0614 101.4 48.8348 101.4H47.1748V103.08ZM51.7742 106V100.79H52.6542V104.82L55.5742 100.78H56.3742V106H55.4942V102.05L52.6142 106H51.7742ZM57.7703 106V100.78H58.6503V102.93H59.2303L60.8703 100.78H61.8703L59.9203 103.31L62.1003 106H61.0803L59.2303 103.74H58.6503V106H57.7703ZM64.9724 106.1C64.5791 106.1 64.2224 106.03 63.9024 105.89C63.5824 105.743 63.3058 105.547 63.0724 105.3C62.8391 105.047 62.6591 104.757 62.5324 104.43C62.4058 104.103 62.3424 103.76 62.3424 103.4C62.3424 103.033 62.4058 102.687 62.5324 102.36C62.6591 102.033 62.8391 101.747 63.0724 101.5C63.3058 101.247 63.5824 101.05 63.9024 100.91C64.2291 100.763 64.5858 100.69 64.9724 100.69C65.3658 100.69 65.7224 100.763 66.0424 100.91C66.3624 101.05 66.6391 101.247 66.8724 101.5C67.1124 101.747 67.2958 102.033 67.4224 102.36C67.5491 102.687 67.6124 103.033 67.6124 103.4C67.6124 103.76 67.5491 104.103 67.4224 104.43C67.2958 104.757 67.1158 105.047 66.8824 105.3C66.6491 105.547 66.3691 105.743 66.0424 105.89C65.7224 106.03 65.3658 106.1 64.9724 106.1ZM63.2424 103.41C63.2424 103.77 63.3191 104.097 63.4724 104.39C63.6324 104.683 63.8424 104.917 64.1024 105.09C64.3624 105.257 64.6524 105.34 64.9724 105.34C65.2924 105.34 65.5824 105.253 65.8424 105.08C66.1091 104.907 66.3191 104.673 66.4724 104.38C66.6324 104.08 66.7124 103.75 66.7124 103.39C66.7124 103.03 66.6324 102.703 66.4724 102.41C66.3191 102.117 66.1091 101.883 65.8424 101.71C65.5824 101.537 65.2924 101.45 64.9724 101.45C64.6524 101.45 64.3624 101.54 64.1024 101.72C63.8424 101.893 63.6324 102.127 63.4724 102.42C63.3191 102.713 63.2424 103.043 63.2424 103.41ZM68.6688 106V100.78H69.5488V102.94H72.2688V100.78H73.1488V106H72.2688V103.72H69.5488V106H68.6688ZM74.1574 104.49C74.1574 104.157 74.2508 103.87 74.4374 103.63C74.6308 103.383 74.8941 103.193 75.2274 103.06C75.5608 102.927 75.9474 102.86 76.3874 102.86C76.6208 102.86 76.8674 102.88 77.1274 102.92C77.3874 102.953 77.6174 103.007 77.8174 103.08V102.7C77.8174 102.3 77.6974 101.987 77.4574 101.76C77.2174 101.527 76.8774 101.41 76.4374 101.41C76.1508 101.41 75.8741 101.463 75.6074 101.57C75.3474 101.67 75.0708 101.817 74.7774 102.01L74.4574 101.39C74.7974 101.157 75.1374 100.983 75.4774 100.87C75.8174 100.75 76.1708 100.69 76.5374 100.69C77.2041 100.69 77.7308 100.877 78.1174 101.25C78.5041 101.617 78.6974 102.13 78.6974 102.79V105C78.6974 105.107 78.7174 105.187 78.7574 105.24C78.8041 105.287 78.8774 105.313 78.9774 105.32V106C78.8908 106.013 78.8141 106.023 78.7474 106.03C78.6874 106.037 78.6374 106.04 78.5974 106.04C78.3908 106.04 78.2341 105.983 78.1274 105.87C78.0274 105.757 77.9708 105.637 77.9574 105.51L77.9374 105.18C77.7108 105.473 77.4141 105.7 77.0474 105.86C76.6808 106.02 76.3174 106.1 75.9574 106.1C75.6108 106.1 75.3008 106.03 75.0274 105.89C74.7541 105.743 74.5408 105.55 74.3874 105.31C74.2341 105.063 74.1574 104.79 74.1574 104.49ZM77.5574 104.86C77.6374 104.767 77.7008 104.673 77.7474 104.58C77.7941 104.48 77.8174 104.397 77.8174 104.33V103.68C77.6108 103.6 77.3941 103.54 77.1674 103.5C76.9408 103.453 76.7174 103.43 76.4974 103.43C76.0508 103.43 75.6874 103.52 75.4074 103.7C75.1341 103.873 74.9974 104.113 74.9974 104.42C74.9974 104.587 75.0408 104.75 75.1274 104.91C75.2208 105.063 75.3541 105.19 75.5274 105.29C75.7074 105.39 75.9274 105.44 76.1874 105.44C76.4608 105.44 76.7208 105.387 76.9674 105.28C77.2141 105.167 77.4108 105.027 77.5574 104.86ZM81.3159 106V101.56H79.5159V100.78H83.9959V101.56H82.1959V106H81.3159ZM84.8699 106V100.79H85.7499V104.82L88.6699 100.78H89.4699V106H88.5899V102.05L85.7099 106H84.8699ZM96.8853 105.2V106H93.3553V105.2H94.7153V99.75C94.662 99.83 94.5753 99.92 94.4553 100.02C94.3353 100.113 94.1953 100.207 94.0353 100.3C93.882 100.387 93.7253 100.46 93.5653 100.52C93.4053 100.58 93.2586 100.61 93.1253 100.61V99.79C93.3053 99.79 93.4853 99.7433 93.6653 99.65C93.852 99.5567 94.022 99.4467 94.1753 99.32C94.3353 99.1933 94.462 99.08 94.5553 98.98C94.6553 98.88 94.7086 98.8267 94.7153 98.82H95.6153V105.2H96.8853ZM2.34 121.07C1.83333 121.07 1.40333 120.977 1.05 120.79C0.703333 120.597 0.436667 120.33 0.25 119.99L0.97 119.67C1.09 119.883 1.26 120.05 1.48 120.17C1.70667 120.29 1.98 120.35 2.3 120.35C2.68 120.35 2.98 120.267 3.2 120.1C3.42 119.933 3.53 119.71 3.53 119.43C3.53 119.177 3.44 118.973 3.26 118.82C3.08667 118.66 2.84 118.577 2.52 118.57H1.99V117.99H2.55C2.69 117.99 2.81333 117.957 2.92 117.89C3.03333 117.817 3.12 117.72 3.18 117.6C3.24667 117.48 3.28 117.347 3.28 117.2C3.28 116.967 3.19667 116.78 3.03 116.64C2.86333 116.493 2.61333 116.42 2.28 116.42C2.00667 116.42 1.77667 116.473 1.59 116.58C1.41 116.687 1.26333 116.847 1.15 117.06L0.48 116.7C0.646667 116.387 0.886667 116.143 1.2 115.97C1.52 115.79 1.89333 115.7 2.32 115.7C2.66 115.7 2.96 115.757 3.22 115.87C3.48667 115.977 3.69333 116.133 3.84 116.34C3.99333 116.547 4.07 116.797 4.07 117.09C4.07 117.337 4.01 117.567 3.89 117.78C3.77667 117.987 3.60667 118.143 3.38 118.25C3.69333 118.343 3.93333 118.507 4.1 118.74C4.26667 118.967 4.35 119.237 4.35 119.55C4.35 119.87 4.26333 120.143 4.09 120.37C3.91667 120.597 3.68 120.77 3.38 120.89C3.08 121.01 2.73333 121.07 2.34 121.07ZM4.99727 119.49C4.99727 119.157 5.0906 118.87 5.27727 118.63C5.4706 118.383 5.73393 118.193 6.06727 118.06C6.4006 117.927 6.78727 117.86 7.22727 117.86C7.4606 117.86 7.70727 117.88 7.96727 117.92C8.22727 117.953 8.45727 118.007 8.65727 118.08V117.7C8.65727 117.3 8.53727 116.987 8.29727 116.76C8.05727 116.527 7.71727 116.41 7.27727 116.41C6.9906 116.41 6.71393 116.463 6.44727 116.57C6.18727 116.67 5.9106 116.817 5.61727 117.01L5.29727 116.39C5.63727 116.157 5.97727 115.983 6.31727 115.87C6.65727 115.75 7.0106 115.69 7.37727 115.69C8.04393 115.69 8.5706 115.877 8.95727 116.25C9.34393 116.617 9.53727 117.13 9.53727 117.79V120C9.53727 120.107 9.55727 120.187 9.59727 120.24C9.64393 120.287 9.71727 120.313 9.81727 120.32V121C9.7306 121.013 9.65393 121.023 9.58727 121.03C9.52727 121.037 9.47727 121.04 9.43727 121.04C9.2306 121.04 9.07393 120.983 8.96727 120.87C8.86727 120.757 8.8106 120.637 8.79727 120.51L8.77727 120.18C8.5506 120.473 8.25393 120.7 7.88727 120.86C7.5206 121.02 7.15727 121.1 6.79727 121.1C6.4506 121.1 6.1406 121.03 5.86727 120.89C5.59393 120.743 5.3806 120.55 5.22727 120.31C5.07393 120.063 4.99727 119.79 4.99727 119.49ZM8.39727 119.86C8.47727 119.767 8.5406 119.673 8.58727 119.58C8.63393 119.48 8.65727 119.397 8.65727 119.33V118.68C8.4506 118.6 8.23393 118.54 8.00727 118.5C7.7806 118.453 7.55727 118.43 7.33727 118.43C6.8906 118.43 6.52727 118.52 6.24727 118.7C5.97393 118.873 5.83727 119.113 5.83727 119.42C5.83727 119.587 5.8806 119.75 5.96727 119.91C6.0606 120.063 6.19393 120.19 6.36727 120.29C6.54727 120.39 6.76727 120.44 7.02727 120.44C7.3006 120.44 7.5606 120.387 7.80727 120.28C8.05393 120.167 8.2506 120.027 8.39727 119.86ZM10.9344 121V115.78H13.6344C13.9477 115.78 14.2077 115.843 14.4144 115.97C14.621 116.09 14.7744 116.247 14.8744 116.44C14.981 116.633 15.0344 116.84 15.0344 117.06C15.0344 117.34 14.9677 117.593 14.8344 117.82C14.701 118.04 14.5077 118.207 14.2544 118.32C14.5544 118.407 14.7977 118.563 14.9844 118.79C15.171 119.01 15.2644 119.283 15.2644 119.61C15.2644 119.903 15.1944 120.153 15.0544 120.36C14.9144 120.567 14.7177 120.727 14.4644 120.84C14.211 120.947 13.9177 121 13.5844 121H10.9344ZM11.7744 120.38H13.5644C13.7244 120.38 13.8677 120.34 13.9944 120.26C14.1277 120.18 14.231 120.073 14.3044 119.94C14.3777 119.807 14.4144 119.667 14.4144 119.52C14.4144 119.36 14.3777 119.217 14.3044 119.09C14.2377 118.957 14.141 118.853 14.0144 118.78C13.8944 118.7 13.7544 118.66 13.5944 118.66H11.7744V120.38ZM11.7744 118.08H13.4044C13.5644 118.08 13.7044 118.04 13.8244 117.96C13.9444 117.873 14.0377 117.763 14.1044 117.63C14.171 117.497 14.2044 117.357 14.2044 117.21C14.2044 116.99 14.131 116.8 13.9844 116.64C13.8444 116.48 13.661 116.4 13.4344 116.4H11.7744V118.08ZM15.8038 122.23V120.22H15.9138C16.0605 120.22 16.1938 120.177 16.3138 120.09C16.4405 120.003 16.5505 119.853 16.6438 119.64C16.7438 119.42 16.8238 119.12 16.8838 118.74C16.9438 118.36 16.9838 117.877 17.0038 117.29L17.0538 115.78H20.6038V120.22H21.3138V122.23H20.5338V121H16.5838V122.23H15.8038ZM17.1438 120.22H19.7238V116.56H17.8338L17.8038 117.37C17.7838 117.937 17.7438 118.413 17.6838 118.8C17.6305 119.18 17.5572 119.483 17.4638 119.71C17.3772 119.937 17.2705 120.107 17.1438 120.22ZM21.882 119.49C21.882 119.157 21.9754 118.87 22.162 118.63C22.3554 118.383 22.6187 118.193 22.952 118.06C23.2854 117.927 23.672 117.86 24.112 117.86C24.3454 117.86 24.592 117.88 24.852 117.92C25.112 117.953 25.342 118.007 25.542 118.08V117.7C25.542 117.3 25.422 116.987 25.182 116.76C24.942 116.527 24.602 116.41 24.162 116.41C23.8754 116.41 23.5987 116.463 23.332 116.57C23.072 116.67 22.7954 116.817 22.502 117.01L22.182 116.39C22.522 116.157 22.862 115.983 23.202 115.87C23.542 115.75 23.8954 115.69 24.262 115.69C24.9287 115.69 25.4554 115.877 25.842 116.25C26.2287 116.617 26.422 117.13 26.422 117.79V120C26.422 120.107 26.442 120.187 26.482 120.24C26.5287 120.287 26.602 120.313 26.702 120.32V121C26.6154 121.013 26.5387 121.023 26.472 121.03C26.412 121.037 26.362 121.04 26.322 121.04C26.1154 121.04 25.9587 120.983 25.852 120.87C25.752 120.757 25.6954 120.637 25.682 120.51L25.662 120.18C25.4354 120.473 25.1387 120.7 24.772 120.86C24.4054 121.02 24.042 121.1 23.682 121.1C23.3354 121.1 23.0254 121.03 22.752 120.89C22.4787 120.743 22.2654 120.55 22.112 120.31C21.9587 120.063 21.882 119.79 21.882 119.49ZM25.282 119.86C25.362 119.767 25.4254 119.673 25.472 119.58C25.5187 119.48 25.542 119.397 25.542 119.33V118.68C25.3354 118.6 25.1187 118.54 24.892 118.5C24.6654 118.453 24.442 118.43 24.222 118.43C23.7754 118.43 23.412 118.52 23.132 118.7C22.8587 118.873 22.722 119.113 22.722 119.42C22.722 119.587 22.7654 119.75 22.852 119.91C22.9454 120.063 23.0787 120.19 23.252 120.29C23.432 120.39 23.652 120.44 23.912 120.44C24.1854 120.44 24.4454 120.387 24.692 120.28C24.9387 120.167 25.1354 120.027 25.282 119.86ZM27.8191 121V115.78H28.6991V117.94H31.4191V115.78H32.2991V121H31.4191V118.72H28.6991V121H27.8191ZM33.7078 121V115.78H34.5878V117.94H37.3078V115.78H38.1878V121H37.3078V118.72H34.5878V121H33.7078ZM39.2165 121L40.6965 118.9C40.3565 118.833 40.0832 118.673 39.8765 118.42C39.6698 118.16 39.5665 117.813 39.5665 117.38C39.5665 117.067 39.6398 116.79 39.7865 116.55C39.9332 116.31 40.1365 116.12 40.3965 115.98C40.6632 115.84 40.9732 115.77 41.3265 115.77H43.4665V121H42.5865V119.04H41.5665L40.1865 121H39.2165ZM41.3865 118.39H42.5865V116.46H41.4865C41.1732 116.46 40.9232 116.55 40.7365 116.73C40.5498 116.903 40.4565 117.127 40.4565 117.4C40.4565 117.673 40.5332 117.907 40.6865 118.1C40.8465 118.293 41.0798 118.39 41.3865 118.39ZM47.409 121V115.78H51.739V121H50.859V116.56H48.289V121H47.409ZM53.1612 121V115.78H54.0412V121H53.1612ZM53.1612 114.8V113.7H54.0412V114.8H53.1612ZM54.8859 122.23V120.22H54.9959C55.1425 120.22 55.2759 120.177 55.3959 120.09C55.5225 120.003 55.6325 119.853 55.7259 119.64C55.8259 119.42 55.9059 119.12 55.9659 118.74C56.0259 118.36 56.0659 117.877 56.0859 117.29L56.1359 115.78H59.6859V120.22H60.3959V122.23H59.6159V121H55.6659V122.23H54.8859ZM56.2259 120.22H58.8059V116.56H56.9159L56.8859 117.37C56.8659 117.937 56.8259 118.413 56.7659 118.8C56.7125 119.18 56.6392 119.483 56.5459 119.71C56.4592 119.937 56.3525 120.107 56.2259 120.22ZM63.8934 121V115.78H64.7734V117.94H67.4934V115.78H68.3734V121H67.4934V118.72H64.7734V121H63.8934ZM72.072 121.1C71.6787 121.1 71.322 121.03 71.002 120.89C70.682 120.743 70.4054 120.547 70.172 120.3C69.9387 120.047 69.7587 119.757 69.632 119.43C69.5054 119.103 69.442 118.76 69.442 118.4C69.442 118.033 69.5054 117.687 69.632 117.36C69.7587 117.033 69.9387 116.747 70.172 116.5C70.4054 116.247 70.682 116.05 71.002 115.91C71.3287 115.763 71.6854 115.69 72.072 115.69C72.4654 115.69 72.822 115.763 73.142 115.91C73.462 116.05 73.7387 116.247 73.972 116.5C74.212 116.747 74.3954 117.033 74.522 117.36C74.6487 117.687 74.712 118.033 74.712 118.4C74.712 118.76 74.6487 119.103 74.522 119.43C74.3954 119.757 74.2154 120.047 73.982 120.3C73.7487 120.547 73.4687 120.743 73.142 120.89C72.822 121.03 72.4654 121.1 72.072 121.1ZM70.342 118.41C70.342 118.77 70.4187 119.097 70.572 119.39C70.732 119.683 70.942 119.917 71.202 120.09C71.462 120.257 71.752 120.34 72.072 120.34C72.392 120.34 72.682 120.253 72.942 120.08C73.2087 119.907 73.4187 119.673 73.572 119.38C73.732 119.08 73.812 118.75 73.812 118.39C73.812 118.03 73.732 117.703 73.572 117.41C73.4187 117.117 73.2087 116.883 72.942 116.71C72.682 116.537 72.392 116.45 72.072 116.45C71.752 116.45 71.462 116.54 71.202 116.72C70.942 116.893 70.732 117.127 70.572 117.42C70.4187 117.713 70.342 118.043 70.342 118.41ZM75.7684 121V115.78H76.6784L78.6184 119.2L80.5684 115.78H81.4584V121H80.6184V117.05L78.8984 120.07H78.3384L76.6084 117.05V121H75.7684ZM85.188 121.1C84.7946 121.1 84.4346 121.03 84.108 120.89C83.788 120.743 83.508 120.547 83.268 120.3C83.0346 120.047 82.8513 119.757 82.718 119.43C82.5913 119.103 82.528 118.757 82.528 118.39C82.528 117.897 82.6413 117.447 82.868 117.04C83.0946 116.633 83.408 116.307 83.808 116.06C84.2146 115.813 84.678 115.69 85.198 115.69C85.7246 115.69 86.1813 115.817 86.568 116.07C86.9613 116.317 87.2646 116.643 87.478 117.05C87.698 117.45 87.808 117.883 87.808 118.35C87.808 118.417 87.8046 118.483 87.798 118.55C87.798 118.61 87.7946 118.657 87.788 118.69H83.458C83.4846 119.03 83.578 119.333 83.738 119.6C83.9046 119.86 84.118 120.067 84.378 120.22C84.638 120.367 84.918 120.44 85.218 120.44C85.538 120.44 85.838 120.36 86.118 120.2C86.4046 120.04 86.6013 119.83 86.708 119.57L87.468 119.78C87.3546 120.033 87.1846 120.26 86.958 120.46C86.738 120.66 86.4746 120.817 86.168 120.93C85.868 121.043 85.5413 121.1 85.188 121.1ZM83.428 118.08H86.988C86.9613 117.74 86.8646 117.44 86.698 117.18C86.5313 116.92 86.318 116.717 86.058 116.57C85.798 116.423 85.5113 116.35 85.198 116.35C84.8913 116.35 84.608 116.423 84.348 116.57C84.088 116.717 83.8746 116.92 83.708 117.18C83.548 117.44 83.4546 117.74 83.428 118.08ZM91.5962 121.1C91.1695 121.1 90.7895 120.993 90.4562 120.78C90.1228 120.567 89.8595 120.297 89.6662 119.97V123.13H88.7862V115.78H89.5662V116.76C89.7728 116.44 90.0428 116.183 90.3762 115.99C90.7095 115.79 91.0728 115.69 91.4662 115.69C91.8262 115.69 92.1562 115.763 92.4562 115.91C92.7562 116.057 93.0162 116.257 93.2362 116.51C93.4562 116.763 93.6262 117.053 93.7462 117.38C93.8728 117.7 93.9362 118.037 93.9362 118.39C93.9362 118.883 93.8362 119.337 93.6362 119.75C93.4428 120.163 93.1695 120.493 92.8162 120.74C92.4628 120.98 92.0562 121.1 91.5962 121.1ZM91.3262 120.34C91.5862 120.34 91.8195 120.287 92.0262 120.18C92.2395 120.067 92.4195 119.92 92.5662 119.74C92.7195 119.553 92.8362 119.343 92.9162 119.11C92.9962 118.877 93.0362 118.637 93.0362 118.39C93.0362 118.13 92.9895 117.883 92.8962 117.65C92.8095 117.417 92.6828 117.21 92.5162 117.03C92.3562 116.85 92.1662 116.71 91.9462 116.61C91.7328 116.503 91.4995 116.45 91.2462 116.45C91.0862 116.45 90.9195 116.48 90.7462 116.54C90.5795 116.6 90.4195 116.687 90.2662 116.8C90.1128 116.907 89.9828 117.03 89.8762 117.17C89.7695 117.31 89.6995 117.46 89.6662 117.62V119.11C89.7662 119.337 89.8995 119.543 90.0662 119.73C90.2328 119.917 90.4262 120.067 90.6462 120.18C90.8662 120.287 91.0928 120.34 91.3262 120.34ZM97.2966 121.1C96.9033 121.1 96.5466 121.03 96.2266 120.89C95.9066 120.743 95.63 120.547 95.3966 120.3C95.1633 120.047 94.9833 119.757 94.8566 119.43C94.73 119.103 94.6666 118.76 94.6666 118.4C94.6666 118.033 94.73 117.687 94.8566 117.36C94.9833 117.033 95.1633 116.747 95.3966 116.5C95.63 116.247 95.9066 116.05 96.2266 115.91C96.5533 115.763 96.91 115.69 97.2966 115.69C97.69 115.69 98.0466 115.763 98.3666 115.91C98.6866 116.05 98.9633 116.247 99.1966 116.5C99.4366 116.747 99.62 117.033 99.7466 117.36C99.8733 117.687 99.9366 118.033 99.9366 118.4C99.9366 118.76 99.8733 119.103 99.7466 119.43C99.62 119.757 99.44 120.047 99.2066 120.3C98.9733 120.547 98.6933 120.743 98.3666 120.89C98.0466 121.03 97.69 121.1 97.2966 121.1ZM95.5666 118.41C95.5666 118.77 95.6433 119.097 95.7966 119.39C95.9566 119.683 96.1666 119.917 96.4266 120.09C96.6866 120.257 96.9766 120.34 97.2966 120.34C97.6166 120.34 97.9066 120.253 98.1666 120.08C98.4333 119.907 98.6433 119.673 98.7966 119.38C98.9566 119.08 99.0366 118.75 99.0366 118.39C99.0366 118.03 98.9566 117.703 98.7966 117.41C98.6433 117.117 98.4333 116.883 98.1666 116.71C97.9066 116.537 97.6166 116.45 97.2966 116.45C96.9766 116.45 96.6866 116.54 96.4266 116.72C96.1666 116.893 95.9566 117.127 95.7966 117.42C95.6433 117.713 95.5666 118.043 95.5666 118.41ZM100.993 121V115.78H101.903L103.843 119.2L105.793 115.78H106.683V121H105.843V117.05L104.123 120.07H103.563L101.833 117.05V121H100.993ZM0.32 136L1.8 133.9C1.46 133.833 1.18667 133.673 0.98 133.42C0.773333 133.16 0.67 132.813 0.67 132.38C0.67 132.067 0.743333 131.79 0.89 131.55C1.03667 131.31 1.24 131.12 1.5 130.98C1.76667 130.84 2.07667 130.77 2.43 130.77H4.57V136H3.69V134.04H2.67L1.29 136H0.32ZM2.49 133.39H3.69V131.46H2.59C2.27667 131.46 2.02667 131.55 1.84 131.73C1.65333 131.903 1.56 132.127 1.56 132.4C1.56 132.673 1.63667 132.907 1.79 133.1C1.95 133.293 2.18333 133.39 2.49 133.39ZM5.9832 136V130.78H6.8632V132.93H7.4432L9.0832 130.78H10.0832L8.1332 133.31L10.3132 136H9.2932L7.4432 133.74H6.8632V136H5.9832ZM13.2153 136.1C12.822 136.1 12.462 136.03 12.1353 135.89C11.8153 135.743 11.5353 135.547 11.2953 135.3C11.062 135.047 10.8786 134.757 10.7453 134.43C10.6186 134.103 10.5553 133.757 10.5553 133.39C10.5553 132.897 10.6686 132.447 10.8953 132.04C11.122 131.633 11.4353 131.307 11.8353 131.06C12.242 130.813 12.7053 130.69 13.2253 130.69C13.752 130.69 14.2086 130.817 14.5953 131.07C14.9886 131.317 15.292 131.643 15.5053 132.05C15.7253 132.45 15.8353 132.883 15.8353 133.35C15.8353 133.417 15.832 133.483 15.8253 133.55C15.8253 133.61 15.822 133.657 15.8153 133.69H11.4853C11.512 134.03 11.6053 134.333 11.7653 134.6C11.932 134.86 12.1453 135.067 12.4053 135.22C12.6653 135.367 12.9453 135.44 13.2453 135.44C13.5653 135.44 13.8653 135.36 14.1453 135.2C14.432 135.04 14.6286 134.83 14.7353 134.57L15.4953 134.78C15.382 135.033 15.212 135.26 14.9853 135.46C14.7653 135.66 14.502 135.817 14.1953 135.93C13.8953 136.043 13.5686 136.1 13.2153 136.1ZM11.4553 133.08H15.0153C14.9886 132.74 14.892 132.44 14.7253 132.18C14.5586 131.92 14.3453 131.717 14.0853 131.57C13.8253 131.423 13.5386 131.35 13.2253 131.35C12.9186 131.35 12.6353 131.423 12.3753 131.57C12.1153 131.717 11.902 131.92 11.7353 132.18C11.5753 132.44 11.482 132.74 11.4553 133.08ZM19.3328 136V130.78H22.0328C22.3461 130.78 22.6061 130.843 22.8128 130.97C23.0195 131.09 23.1728 131.247 23.2728 131.44C23.3795 131.633 23.4328 131.84 23.4328 132.06C23.4328 132.34 23.3661 132.593 23.2328 132.82C23.0995 133.04 22.9061 133.207 22.6528 133.32C22.9528 133.407 23.1961 133.563 23.3828 133.79C23.5695 134.01 23.6628 134.283 23.6628 134.61C23.6628 134.903 23.5928 135.153 23.4528 135.36C23.3128 135.567 23.1161 135.727 22.8628 135.84C22.6095 135.947 22.3161 136 21.9828 136H19.3328ZM20.1728 135.38H21.9628C22.1228 135.38 22.2661 135.34 22.3928 135.26C22.5261 135.18 22.6295 135.073 22.7028 134.94C22.7761 134.807 22.8128 134.667 22.8128 134.52C22.8128 134.36 22.7761 134.217 22.7028 134.09C22.6361 133.957 22.5395 133.853 22.4128 133.78C22.2928 133.7 22.1528 133.66 21.9928 133.66H20.1728V135.38ZM20.1728 133.08H21.8028C21.9628 133.08 22.1028 133.04 22.2228 132.96C22.3428 132.873 22.4361 132.763 22.5028 132.63C22.5695 132.497 22.6028 132.357 22.6028 132.21C22.6028 131.99 22.5295 131.8 22.3828 131.64C22.2428 131.48 22.0595 131.4 21.8328 131.4H20.1728V133.08ZM24.7723 136V130.79H25.6523V134.82L28.5723 130.78H29.3723V136H28.4923V132.05L25.6123 136H24.7723ZM33.2384 136.1C32.3784 136.1 31.7284 135.84 31.2884 135.32C30.8484 134.8 30.6284 134.067 30.6284 133.12C30.6284 132.473 30.6817 131.93 30.7884 131.49C30.895 131.043 31.055 130.677 31.2684 130.39C31.4817 130.097 31.745 129.86 32.0584 129.68C32.3717 129.493 32.7317 129.34 33.1384 129.22L35.3484 128.55L35.3984 129.31L33.2484 129.96C32.8817 130.08 32.575 130.233 32.3284 130.42C32.0817 130.607 31.8884 130.847 31.7484 131.14C31.6084 131.433 31.515 131.81 31.4684 132.27C31.6417 131.917 31.9017 131.643 32.2484 131.45C32.595 131.25 32.9984 131.15 33.4584 131.15C33.9517 131.15 34.375 131.253 34.7284 131.46C35.0884 131.66 35.3617 131.943 35.5484 132.31C35.7417 132.67 35.8384 133.087 35.8384 133.56C35.8384 134.067 35.7384 134.51 35.5384 134.89C35.3384 135.27 35.045 135.567 34.6584 135.78C34.2717 135.993 33.7984 136.1 33.2384 136.1ZM33.2384 135.34C33.7784 135.34 34.195 135.183 34.4884 134.87C34.7884 134.55 34.9384 134.127 34.9384 133.6C34.9384 133.087 34.7917 132.67 34.4984 132.35C34.205 132.03 33.785 131.87 33.2384 131.87C32.9184 131.87 32.6284 131.937 32.3684 132.07C32.115 132.203 31.9117 132.4 31.7584 132.66C31.6117 132.913 31.5384 133.227 31.5384 133.6C31.5384 133.933 31.6017 134.233 31.7284 134.5C31.8617 134.76 32.055 134.967 32.3084 135.12C32.5617 135.267 32.8717 135.34 33.2384 135.34ZM39.7212 136.1C39.2945 136.1 38.9145 135.993 38.5812 135.78C38.2478 135.567 37.9845 135.297 37.7912 134.97V138.13H36.9112V130.78H37.6912V131.76C37.8978 131.44 38.1678 131.183 38.5012 130.99C38.8345 130.79 39.1978 130.69 39.5912 130.69C39.9512 130.69 40.2812 130.763 40.5812 130.91C40.8812 131.057 41.1412 131.257 41.3612 131.51C41.5812 131.763 41.7512 132.053 41.8712 132.38C41.9978 132.7 42.0612 133.037 42.0612 133.39C42.0612 133.883 41.9612 134.337 41.7612 134.75C41.5678 135.163 41.2945 135.493 40.9412 135.74C40.5878 135.98 40.1812 136.1 39.7212 136.1ZM39.4512 135.34C39.7112 135.34 39.9445 135.287 40.1512 135.18C40.3645 135.067 40.5445 134.92 40.6912 134.74C40.8445 134.553 40.9612 134.343 41.0412 134.11C41.1212 133.877 41.1612 133.637 41.1612 133.39C41.1612 133.13 41.1145 132.883 41.0212 132.65C40.9345 132.417 40.8078 132.21 40.6412 132.03C40.4812 131.85 40.2912 131.71 40.0712 131.61C39.8578 131.503 39.6245 131.45 39.3712 131.45C39.2112 131.45 39.0445 131.48 38.8712 131.54C38.7045 131.6 38.5445 131.687 38.3912 131.8C38.2378 131.907 38.1078 132.03 38.0012 132.17C37.8945 132.31 37.8245 132.46 37.7912 132.62V134.11C37.8912 134.337 38.0245 134.543 38.1912 134.73C38.3578 134.917 38.5512 135.067 38.7712 135.18C38.9912 135.287 39.2178 135.34 39.4512 135.34ZM42.7316 134.49C42.7316 134.157 42.825 133.87 43.0116 133.63C43.205 133.383 43.4683 133.193 43.8016 133.06C44.135 132.927 44.5216 132.86 44.9616 132.86C45.195 132.86 45.4416 132.88 45.7016 132.92C45.9616 132.953 46.1916 133.007 46.3916 133.08V132.7C46.3916 132.3 46.2716 131.987 46.0316 131.76C45.7916 131.527 45.4516 131.41 45.0116 131.41C44.725 131.41 44.4483 131.463 44.1816 131.57C43.9216 131.67 43.645 131.817 43.3516 132.01L43.0316 131.39C43.3716 131.157 43.7116 130.983 44.0516 130.87C44.3916 130.75 44.745 130.69 45.1116 130.69C45.7783 130.69 46.305 130.877 46.6916 131.25C47.0783 131.617 47.2716 132.13 47.2716 132.79V135C47.2716 135.107 47.2916 135.187 47.3316 135.24C47.3783 135.287 47.4516 135.313 47.5516 135.32V136C47.465 136.013 47.3883 136.023 47.3216 136.03C47.2616 136.037 47.2116 136.04 47.1716 136.04C46.965 136.04 46.8083 135.983 46.7016 135.87C46.6016 135.757 46.545 135.637 46.5316 135.51L46.5116 135.18C46.285 135.473 45.9883 135.7 45.6216 135.86C45.255 136.02 44.8916 136.1 44.5316 136.1C44.185 136.1 43.875 136.03 43.6016 135.89C43.3283 135.743 43.115 135.55 42.9616 135.31C42.8083 135.063 42.7316 134.79 42.7316 134.49ZM46.1316 134.86C46.2116 134.767 46.275 134.673 46.3216 134.58C46.3683 134.48 46.3916 134.397 46.3916 134.33V133.68C46.185 133.6 45.9683 133.54 45.7416 133.5C45.515 133.453 45.2916 133.43 45.0716 133.43C44.625 133.43 44.2616 133.52 43.9816 133.7C43.7083 133.873 43.5716 134.113 43.5716 134.42C43.5716 134.587 43.615 134.75 43.7016 134.91C43.795 135.063 43.9283 135.19 44.1016 135.29C44.2816 135.39 44.5016 135.44 44.7616 135.44C45.035 135.44 45.295 135.387 45.5416 135.28C45.7883 135.167 45.985 135.027 46.1316 134.86ZM48.2188 136.04V135.25C48.3921 135.25 48.5454 135.207 48.6788 135.12C48.8188 135.027 48.9421 134.873 49.0488 134.66C49.1554 134.44 49.2388 134.14 49.2988 133.76C49.3654 133.373 49.4088 132.883 49.4288 132.29L49.4888 130.78H53.0388V136H52.1588V131.56H50.2688L50.2488 132.37C50.2221 133.083 50.1621 133.677 50.0688 134.15C49.9754 134.623 49.8454 134.997 49.6788 135.27C49.5121 135.543 49.3054 135.74 49.0588 135.86C48.8188 135.98 48.5388 136.04 48.2188 136.04ZM54.05 134.49C54.05 134.157 54.1433 133.87 54.33 133.63C54.5233 133.383 54.7867 133.193 55.12 133.06C55.4533 132.927 55.84 132.86 56.28 132.86C56.5133 132.86 56.76 132.88 57.02 132.92C57.28 132.953 57.51 133.007 57.71 133.08V132.7C57.71 132.3 57.59 131.987 57.35 131.76C57.11 131.527 56.77 131.41 56.33 131.41C56.0433 131.41 55.7667 131.463 55.5 131.57C55.24 131.67 54.9633 131.817 54.67 132.01L54.35 131.39C54.69 131.157 55.03 130.983 55.37 130.87C55.71 130.75 56.0633 130.69 56.43 130.69C57.0967 130.69 57.6233 130.877 58.01 131.25C58.3967 131.617 58.59 132.13 58.59 132.79V135C58.59 135.107 58.61 135.187 58.65 135.24C58.6967 135.287 58.77 135.313 58.87 135.32V136C58.7833 136.013 58.7067 136.023 58.64 136.03C58.58 136.037 58.53 136.04 58.49 136.04C58.2833 136.04 58.1267 135.983 58.02 135.87C57.92 135.757 57.8633 135.637 57.85 135.51L57.83 135.18C57.6033 135.473 57.3067 135.7 56.94 135.86C56.5733 136.02 56.21 136.1 55.85 136.1C55.5033 136.1 55.1933 136.03 54.92 135.89C54.6467 135.743 54.4333 135.55 54.28 135.31C54.1267 135.063 54.05 134.79 54.05 134.49ZM57.45 134.86C57.53 134.767 57.5933 134.673 57.64 134.58C57.6867 134.48 57.71 134.397 57.71 134.33V133.68C57.5033 133.6 57.2867 133.54 57.06 133.5C56.8333 133.453 56.61 133.43 56.39 133.43C55.9433 133.43 55.58 133.52 55.3 133.7C55.0267 133.873 54.89 134.113 54.89 134.42C54.89 134.587 54.9333 134.75 55.02 134.91C55.1133 135.063 55.2467 135.19 55.42 135.29C55.6 135.39 55.82 135.44 56.08 135.44C56.3533 135.44 56.6133 135.387 56.86 135.28C57.1067 135.167 57.3033 135.027 57.45 134.86ZM62.5164 136V130.78H63.3964V132.93H63.9764L65.6164 130.78H66.6164L64.6664 133.31L66.8464 136H65.8264L63.9764 133.74H63.3964V136H62.5164ZM69.7185 136.1C69.3252 136.1 68.9685 136.03 68.6485 135.89C68.3285 135.743 68.0518 135.547 67.8185 135.3C67.5852 135.047 67.4052 134.757 67.2785 134.43C67.1518 134.103 67.0885 133.76 67.0885 133.4C67.0885 133.033 67.1518 132.687 67.2785 132.36C67.4052 132.033 67.5852 131.747 67.8185 131.5C68.0518 131.247 68.3285 131.05 68.6485 130.91C68.9752 130.763 69.3318 130.69 69.7185 130.69C70.1118 130.69 70.4685 130.763 70.7885 130.91C71.1085 131.05 71.3852 131.247 71.6185 131.5C71.8585 131.747 72.0418 132.033 72.1685 132.36C72.2952 132.687 72.3585 133.033 72.3585 133.4C72.3585 133.76 72.2952 134.103 72.1685 134.43C72.0418 134.757 71.8618 135.047 71.6285 135.3C71.3952 135.547 71.1152 135.743 70.7885 135.89C70.4685 136.03 70.1118 136.1 69.7185 136.1ZM67.9885 133.41C67.9885 133.77 68.0652 134.097 68.2185 134.39C68.3785 134.683 68.5885 134.917 68.8485 135.09C69.1085 135.257 69.3985 135.34 69.7185 135.34C70.0385 135.34 70.3285 135.253 70.5885 135.08C70.8552 134.907 71.0652 134.673 71.2185 134.38C71.3785 134.08 71.4585 133.75 71.4585 133.39C71.4585 133.03 71.3785 132.703 71.2185 132.41C71.0652 132.117 70.8552 131.883 70.5885 131.71C70.3285 131.537 70.0385 131.45 69.7185 131.45C69.3985 131.45 69.1085 131.54 68.8485 131.72C68.5885 131.893 68.3785 132.127 68.2185 132.42C68.0652 132.713 67.9885 133.043 67.9885 133.41ZM73.4148 136V130.78H74.3248L76.2648 134.2L78.2148 130.78H79.1048V136H78.2648V132.05L76.5448 135.07H75.9848L74.2548 132.05V136H73.4148ZM80.1145 134.49C80.1145 134.157 80.2078 133.87 80.3945 133.63C80.5878 133.383 80.8511 133.193 81.1845 133.06C81.5178 132.927 81.9045 132.86 82.3445 132.86C82.5778 132.86 82.8245 132.88 83.0845 132.92C83.3445 132.953 83.5745 133.007 83.7745 133.08V132.7C83.7745 132.3 83.6545 131.987 83.4145 131.76C83.1745 131.527 82.8345 131.41 82.3945 131.41C82.1078 131.41 81.8311 131.463 81.5645 131.57C81.3045 131.67 81.0278 131.817 80.7345 132.01L80.4145 131.39C80.7545 131.157 81.0945 130.983 81.4345 130.87C81.7745 130.75 82.1278 130.69 82.4945 130.69C83.1611 130.69 83.6878 130.877 84.0745 131.25C84.4611 131.617 84.6545 132.13 84.6545 132.79V135C84.6545 135.107 84.6745 135.187 84.7145 135.24C84.7611 135.287 84.8345 135.313 84.9345 135.32V136C84.8478 136.013 84.7711 136.023 84.7045 136.03C84.6445 136.037 84.5945 136.04 84.5545 136.04C84.3478 136.04 84.1911 135.983 84.0845 135.87C83.9845 135.757 83.9278 135.637 83.9145 135.51L83.8945 135.18C83.6678 135.473 83.3711 135.7 83.0045 135.86C82.6378 136.02 82.2745 136.1 81.9145 136.1C81.5678 136.1 81.2578 136.03 80.9845 135.89C80.7111 135.743 80.4978 135.55 80.3445 135.31C80.1911 135.063 80.1145 134.79 80.1145 134.49ZM83.5145 134.86C83.5945 134.767 83.6578 134.673 83.7045 134.58C83.7511 134.48 83.7745 134.397 83.7745 134.33V133.68C83.5678 133.6 83.3511 133.54 83.1245 133.5C82.8978 133.453 82.6745 133.43 82.4545 133.43C82.0078 133.43 81.6445 133.52 81.3645 133.7C81.0911 133.873 80.9545 134.113 80.9545 134.42C80.9545 134.587 80.9978 134.75 81.0845 134.91C81.1778 135.063 81.3111 135.19 81.4845 135.29C81.6645 135.39 81.8845 135.44 82.1445 135.44C82.4178 135.44 82.6778 135.387 82.9245 135.28C83.1711 135.167 83.3678 135.027 83.5145 134.86ZM86.0516 136V130.78H86.9316V132.94H89.6516V130.78H90.5316V136H89.6516V133.72H86.9316V136H86.0516ZM91.3702 137.23V135.22H91.4802C91.6269 135.22 91.7602 135.177 91.8802 135.09C92.0069 135.003 92.1169 134.853 92.2102 134.64C92.3102 134.42 92.3902 134.12 92.4502 133.74C92.5102 133.36 92.5502 132.877 92.5702 132.29L92.6202 130.78H96.1702V135.22H96.8802V137.23H96.1002V136H92.1502V137.23H91.3702ZM92.7102 135.22H95.2902V131.56H93.4002L93.3702 132.37C93.3502 132.937 93.3102 133.413 93.2502 133.8C93.1969 134.18 93.1236 134.483 93.0302 134.71C92.9436 134.937 92.8369 135.107 92.7102 135.22ZM97.4484 134.49C97.4484 134.157 97.5418 133.87 97.7284 133.63C97.9218 133.383 98.1851 133.193 98.5184 133.06C98.8518 132.927 99.2384 132.86 99.6784 132.86C99.9118 132.86 100.158 132.88 100.418 132.92C100.678 132.953 100.908 133.007 101.108 133.08V132.7C101.108 132.3 100.988 131.987 100.748 131.76C100.508 131.527 100.168 131.41 99.7284 131.41C99.4418 131.41 99.1651 131.463 98.8984 131.57C98.6384 131.67 98.3618 131.817 98.0684 132.01L97.7484 131.39C98.0884 131.157 98.4284 130.983 98.7684 130.87C99.1084 130.75 99.4618 130.69 99.8284 130.69C100.495 130.69 101.022 130.877 101.408 131.25C101.795 131.617 101.988 132.13 101.988 132.79V135C101.988 135.107 102.008 135.187 102.048 135.24C102.095 135.287 102.168 135.313 102.268 135.32V136C102.182 136.013 102.105 136.023 102.038 136.03C101.978 136.037 101.928 136.04 101.888 136.04C101.682 136.04 101.525 135.983 101.418 135.87C101.318 135.757 101.262 135.637 101.248 135.51L101.228 135.18C101.002 135.473 100.705 135.7 100.338 135.86C99.9718 136.02 99.6084 136.1 99.2484 136.1C98.9018 136.1 98.5918 136.03 98.3184 135.89C98.0451 135.743 97.8318 135.55 97.6784 135.31C97.5251 135.063 97.4484 134.79 97.4484 134.49ZM100.848 134.86C100.928 134.767 100.992 134.673 101.038 134.58C101.085 134.48 101.108 134.397 101.108 134.33V133.68C100.902 133.6 100.685 133.54 100.458 133.5C100.232 133.453 100.008 133.43 99.7884 133.43C99.3418 133.43 98.9784 133.52 98.6984 133.7C98.4251 133.873 98.2884 134.113 98.2884 134.42C98.2884 134.587 98.3318 134.75 98.4184 134.91C98.5118 135.063 98.6451 135.19 98.8184 135.29C98.9984 135.39 99.2184 135.44 99.4784 135.44C99.7518 135.44 100.012 135.387 100.258 135.28C100.505 135.167 100.702 135.027 100.848 134.86Z" fill="black"/>
<path d="M174.75 121V118.03C174.623 118.083 174.473 118.14 174.3 118.2C174.127 118.26 173.927 118.31 173.7 118.35C173.48 118.383 173.237 118.4 172.97 118.4C172.183 118.4 171.6 118.227 171.22 117.88C170.84 117.527 170.65 116.967 170.65 116.2V113.9H171.52V116.1C171.52 116.613 171.643 116.99 171.89 117.23C172.143 117.463 172.553 117.58 173.12 117.58C173.413 117.58 173.71 117.547 174.01 117.48C174.317 117.413 174.563 117.33 174.75 117.23V113.9H175.63V121H174.75ZM176.784 119.49C176.784 119.157 176.878 118.87 177.064 118.63C177.258 118.383 177.521 118.193 177.854 118.06C178.188 117.927 178.574 117.86 179.014 117.86C179.248 117.86 179.494 117.88 179.754 117.92C180.014 117.953 180.244 118.007 180.444 118.08V117.7C180.444 117.3 180.324 116.987 180.084 116.76C179.844 116.527 179.504 116.41 179.064 116.41C178.778 116.41 178.501 116.463 178.234 116.57C177.974 116.67 177.698 116.817 177.404 117.01L177.084 116.39C177.424 116.157 177.764 115.983 178.104 115.87C178.444 115.75 178.798 115.69 179.164 115.69C179.831 115.69 180.358 115.877 180.744 116.25C181.131 116.617 181.324 117.13 181.324 117.79V120C181.324 120.107 181.344 120.187 181.384 120.24C181.431 120.287 181.504 120.313 181.604 120.32V121C181.518 121.013 181.441 121.023 181.374 121.03C181.314 121.037 181.264 121.04 181.224 121.04C181.018 121.04 180.861 120.983 180.754 120.87C180.654 120.757 180.598 120.637 180.584 120.51L180.564 120.18C180.338 120.473 180.041 120.7 179.674 120.86C179.308 121.02 178.944 121.1 178.584 121.1C178.238 121.1 177.928 121.03 177.654 120.89C177.381 120.743 177.168 120.55 177.014 120.31C176.861 120.063 176.784 119.79 176.784 119.49ZM180.184 119.86C180.264 119.767 180.328 119.673 180.374 119.58C180.421 119.48 180.444 119.397 180.444 119.33V118.68C180.238 118.6 180.021 118.54 179.794 118.5C179.568 118.453 179.344 118.43 179.124 118.43C178.678 118.43 178.314 118.52 178.034 118.7C177.761 118.873 177.624 119.113 177.624 119.42C177.624 119.587 177.668 119.75 177.754 119.91C177.848 120.063 177.981 120.19 178.154 120.29C178.334 120.39 178.554 120.44 178.814 120.44C179.088 120.44 179.348 120.387 179.594 120.28C179.841 120.167 180.038 120.027 180.184 119.86ZM185.041 121.1C184.648 121.1 184.288 121.03 183.961 120.89C183.641 120.743 183.361 120.543 183.121 120.29C182.888 120.037 182.705 119.747 182.571 119.42C182.445 119.093 182.381 118.747 182.381 118.38C182.381 117.887 182.491 117.437 182.711 117.03C182.931 116.623 183.241 116.3 183.641 116.06C184.041 115.813 184.505 115.69 185.031 115.69C185.545 115.69 185.991 115.807 186.371 116.04C186.758 116.267 187.045 116.573 187.231 116.96L186.371 117.23C186.238 116.983 186.051 116.793 185.811 116.66C185.571 116.52 185.305 116.45 185.011 116.45C184.691 116.45 184.398 116.533 184.131 116.7C183.871 116.867 183.665 117.097 183.511 117.39C183.358 117.677 183.281 118.007 183.281 118.38C183.281 118.747 183.358 119.08 183.511 119.38C183.671 119.673 183.881 119.907 184.141 120.08C184.408 120.253 184.701 120.34 185.021 120.34C185.228 120.34 185.425 120.303 185.611 120.23C185.805 120.157 185.971 120.06 186.111 119.94C186.258 119.813 186.358 119.677 186.411 119.53L187.271 119.79C187.165 120.043 187.001 120.27 186.781 120.47C186.568 120.663 186.311 120.817 186.011 120.93C185.718 121.043 185.395 121.1 185.041 121.1ZM190.788 121V115.78H191.668V117.94H194.388V115.78H195.268V121H194.388V118.72H191.668V121H190.788ZM196.277 119.49C196.277 119.157 196.37 118.87 196.557 118.63C196.75 118.383 197.013 118.193 197.347 118.06C197.68 117.927 198.067 117.86 198.507 117.86C198.74 117.86 198.987 117.88 199.247 117.92C199.507 117.953 199.737 118.007 199.937 118.08V117.7C199.937 117.3 199.817 116.987 199.577 116.76C199.337 116.527 198.997 116.41 198.557 116.41C198.27 116.41 197.993 116.463 197.727 116.57C197.467 116.67 197.19 116.817 196.897 117.01L196.577 116.39C196.917 116.157 197.257 115.983 197.597 115.87C197.937 115.75 198.29 115.69 198.657 115.69C199.323 115.69 199.85 115.877 200.237 116.25C200.623 116.617 200.817 117.13 200.817 117.79V120C200.817 120.107 200.837 120.187 200.877 120.24C200.923 120.287 200.997 120.313 201.097 120.32V121C201.01 121.013 200.933 121.023 200.867 121.03C200.807 121.037 200.757 121.04 200.717 121.04C200.51 121.04 200.353 120.983 200.247 120.87C200.147 120.757 200.09 120.637 200.077 120.51L200.057 120.18C199.83 120.473 199.533 120.7 199.167 120.86C198.8 121.02 198.437 121.1 198.077 121.1C197.73 121.1 197.42 121.03 197.147 120.89C196.873 120.743 196.66 120.55 196.507 120.31C196.353 120.063 196.277 119.79 196.277 119.49ZM199.677 119.86C199.757 119.767 199.82 119.673 199.867 119.58C199.913 119.48 199.937 119.397 199.937 119.33V118.68C199.73 118.6 199.513 118.54 199.287 118.5C199.06 118.453 198.837 118.43 198.617 118.43C198.17 118.43 197.807 118.52 197.527 118.7C197.253 118.873 197.117 119.113 197.117 119.42C197.117 119.587 197.16 119.75 197.247 119.91C197.34 120.063 197.473 120.19 197.647 120.29C197.827 120.39 198.047 120.44 198.307 120.44C198.58 120.44 198.84 120.387 199.087 120.28C199.333 120.167 199.53 120.027 199.677 119.86ZM170.7 136V130.78H173.4C173.713 130.78 173.973 130.843 174.18 130.97C174.387 131.09 174.54 131.247 174.64 131.44C174.747 131.633 174.8 131.84 174.8 132.06C174.8 132.34 174.733 132.593 174.6 132.82C174.467 133.04 174.273 133.207 174.02 133.32C174.32 133.407 174.563 133.563 174.75 133.79C174.937 134.01 175.03 134.283 175.03 134.61C175.03 134.903 174.96 135.153 174.82 135.36C174.68 135.567 174.483 135.727 174.23 135.84C173.977 135.947 173.683 136 173.35 136H170.7ZM171.54 135.38H173.33C173.49 135.38 173.633 135.34 173.76 135.26C173.893 135.18 173.997 135.073 174.07 134.94C174.143 134.807 174.18 134.667 174.18 134.52C174.18 134.36 174.143 134.217 174.07 134.09C174.003 133.957 173.907 133.853 173.78 133.78C173.66 133.7 173.52 133.66 173.36 133.66H171.54V135.38ZM171.54 133.08H173.17C173.33 133.08 173.47 133.04 173.59 132.96C173.71 132.873 173.803 132.763 173.87 132.63C173.937 132.497 173.97 132.357 173.97 132.21C173.97 131.99 173.897 131.8 173.75 131.64C173.61 131.48 173.427 131.4 173.2 131.4H171.54V133.08ZM176.139 136V130.79H177.019V134.82L179.939 130.78H180.739V136H179.859V132.05L176.979 136H176.139ZM182.136 136V130.78H183.016V132.93H183.596L185.236 130.78H186.236L184.286 133.31L186.466 136H185.446L183.596 133.74H183.016V136H182.136ZM189.338 136.1C188.944 136.1 188.588 136.03 188.268 135.89C187.948 135.743 187.671 135.547 187.438 135.3C187.204 135.047 187.024 134.757 186.898 134.43C186.771 134.103 186.708 133.76 186.708 133.4C186.708 133.033 186.771 132.687 186.898 132.36C187.024 132.033 187.204 131.747 187.438 131.5C187.671 131.247 187.948 131.05 188.268 130.91C188.594 130.763 188.951 130.69 189.338 130.69C189.731 130.69 190.088 130.763 190.408 130.91C190.728 131.05 191.004 131.247 191.238 131.5C191.478 131.747 191.661 132.033 191.788 132.36C191.914 132.687 191.978 133.033 191.978 133.4C191.978 133.76 191.914 134.103 191.788 134.43C191.661 134.757 191.481 135.047 191.248 135.3C191.014 135.547 190.734 135.743 190.408 135.89C190.088 136.03 189.731 136.1 189.338 136.1ZM187.608 133.41C187.608 133.77 187.684 134.097 187.838 134.39C187.998 134.683 188.208 134.917 188.468 135.09C188.728 135.257 189.018 135.34 189.338 135.34C189.658 135.34 189.948 135.253 190.208 135.08C190.474 134.907 190.684 134.673 190.838 134.38C190.998 134.08 191.078 133.75 191.078 133.39C191.078 133.03 190.998 132.703 190.838 132.41C190.684 132.117 190.474 131.883 190.208 131.71C189.948 131.537 189.658 131.45 189.338 131.45C189.018 131.45 188.728 131.54 188.468 131.72C188.208 131.893 187.998 132.127 187.838 132.42C187.684 132.713 187.608 133.043 187.608 133.41ZM193.034 136V130.78H193.914V132.94H196.634V130.78H197.514V136H196.634V133.72H193.914V136H193.034ZM198.523 134.49C198.523 134.157 198.616 133.87 198.803 133.63C198.996 133.383 199.259 133.193 199.593 133.06C199.926 132.927 200.313 132.86 200.753 132.86C200.986 132.86 201.233 132.88 201.493 132.92C201.753 132.953 201.983 133.007 202.183 133.08V132.7C202.183 132.3 202.063 131.987 201.823 131.76C201.583 131.527 201.243 131.41 200.803 131.41C200.516 131.41 200.239 131.463 199.973 131.57C199.713 131.67 199.436 131.817 199.143 132.01L198.823 131.39C199.163 131.157 199.503 130.983 199.843 130.87C200.183 130.75 200.536 130.69 200.903 130.69C201.569 130.69 202.096 130.877 202.483 131.25C202.869 131.617 203.063 132.13 203.063 132.79V135C203.063 135.107 203.083 135.187 203.123 135.24C203.169 135.287 203.243 135.313 203.343 135.32V136C203.256 136.013 203.179 136.023 203.113 136.03C203.053 136.037 203.003 136.04 202.963 136.04C202.756 136.04 202.599 135.983 202.493 135.87C202.393 135.757 202.336 135.637 202.323 135.51L202.303 135.18C202.076 135.473 201.779 135.7 201.413 135.86C201.046 136.02 200.683 136.1 200.323 136.1C199.976 136.1 199.666 136.03 199.393 135.89C199.119 135.743 198.906 135.55 198.753 135.31C198.599 135.063 198.523 134.79 198.523 134.49ZM201.923 134.86C202.003 134.767 202.066 134.673 202.113 134.58C202.159 134.48 202.183 134.397 202.183 134.33V133.68C201.976 133.6 201.759 133.54 201.533 133.5C201.306 133.453 201.083 133.43 200.863 133.43C200.416 133.43 200.053 133.52 199.773 133.7C199.499 133.873 199.363 134.113 199.363 134.42C199.363 134.587 199.406 134.75 199.493 134.91C199.586 135.063 199.719 135.19 199.893 135.29C200.073 135.39 200.293 135.44 200.553 135.44C200.826 135.44 201.086 135.387 201.333 135.28C201.579 135.167 201.776 135.027 201.923 134.86ZM204.46 136V130.78H205.34V132.94H208.06V130.78H208.94V136H208.06V133.72H205.34V136H204.46ZM210.348 136V130.78H211.228V132.94H213.948V130.78H214.828V136H213.948V133.72H211.228V136H210.348ZM215.857 136L217.337 133.9C216.997 133.833 216.724 133.673 216.517 133.42C216.31 133.16 216.207 132.813 216.207 132.38C216.207 132.067 216.28 131.79 216.427 131.55C216.574 131.31 216.777 131.12 217.037 130.98C217.304 130.84 217.614 130.77 217.967 130.77H220.107V136H219.227V134.04H218.207L216.827 136H215.857ZM218.027 133.39H219.227V131.46H218.127C217.814 131.46 217.564 131.55 217.377 131.73C217.19 131.903 217.097 132.127 217.097 132.4C217.097 132.673 217.174 132.907 217.327 133.1C217.487 133.293 217.72 133.39 218.027 133.39Z" fill="black"/>
<path d="M101.869 46.115V40.1008H107.9V46.115M101.869 46.115C101.869 47.7758 103.219 49.1222 104.884 49.1222M101.869 46.115C99.4567 46.3225 98.4619 41.3037 98.4619 41.3037H101.869M104.884 49.1222C106.55 49.1222 107.9 47.7758 107.9 46.115M104.884 49.1222L104.884 52.9455M107.9 46.115C110.312 46.3225 111.307 41.3037 111.307 41.3037H107.9M101.869 52.9455H107.9" stroke="white" stroke-width="1.37595" stroke-miterlimit="10"/>
<path d="M122.906 50.161V51.5232H117.719V50.161H119.604V43.1987C119.53 43.3087 119.407 43.4326 119.232 43.5702C119.067 43.6986 118.879 43.827 118.668 43.9554C118.457 44.0747 118.237 44.1756 118.008 44.2582C117.787 44.3407 117.586 44.382 117.402 44.382V42.9785C117.65 42.9785 117.898 42.9143 118.145 42.7859C118.402 42.6575 118.641 42.5107 118.861 42.3456C119.081 42.1713 119.255 42.0154 119.384 41.8778C119.521 41.7402 119.595 41.6668 119.604 41.6576H121.159V50.161H122.906Z" fill="white"/>
<rect x="196.166" y="33.011" width="26.9412" height="26.9412" rx="13.4706" fill="white"/>
<path d="M205.858 51.9817V50.1809L209.637 46.8727C209.92 46.6164 210.161 46.382 210.36 46.1696C210.559 45.9538 210.711 45.7379 210.815 45.5221C210.92 45.3029 210.972 45.0652 210.972 44.8089C210.972 44.5222 210.91 44.2778 210.785 44.0754C210.66 43.8697 210.488 43.7112 210.269 43.5999C210.05 43.4886 209.799 43.433 209.515 43.433C209.229 43.433 208.978 43.492 208.762 43.61C208.546 43.7247 208.377 43.8916 208.256 44.1108C208.138 44.33 208.079 44.5964 208.079 44.9101H205.706C205.706 44.2053 205.865 43.5966 206.182 43.084C206.499 42.5714 206.944 42.1768 207.517 41.9003C208.094 41.6204 208.763 41.4805 209.526 41.4805C210.311 41.4805 210.994 41.612 211.574 41.875C212.154 42.1381 212.603 42.5056 212.92 42.9777C213.24 43.4465 213.4 43.9911 213.4 44.6116C213.4 45.0062 213.321 45.3973 213.163 45.7852C213.004 46.173 212.719 46.6012 212.308 47.07C211.9 47.5387 211.32 48.1002 210.568 48.7544L209.328 49.8976V49.9634H213.527V51.9817H205.858Z" fill="#438ED5"/>
<path d="M149.836 40.4539C146.294 40.4539 143.413 43.335 143.413 46.8762C143.413 50.4174 146.294 53.2986 149.836 53.2986C153.377 53.2986 156.258 50.4174 156.258 46.8762C156.258 43.335 153.377 40.4539 149.836 40.4539Z" stroke="white" stroke-width="1.37595"/>
<path d="M151.671 48.4131L149.836 47.4532V44.7432" stroke="white" stroke-width="1.37595" stroke-linecap="round" stroke-linejoin="round"/>
<path d="M169.522 48.2759C169.522 48.8997 169.366 49.4684 169.055 49.9821C168.752 50.4958 168.33 50.904 167.789 51.2067C167.257 51.5094 166.66 51.6608 166 51.6608C165.284 51.6608 164.656 51.4911 164.115 51.1517C163.583 50.8031 163.165 50.3032 162.863 49.6519C162.569 49.0006 162.422 48.2255 162.422 47.3265C162.422 46.079 162.574 45.0379 162.876 44.2031C163.188 43.3684 163.624 42.74 164.184 42.3181C164.743 41.8961 165.399 41.6851 166.151 41.6851C166.775 41.6851 167.344 41.8319 167.857 42.1254C168.38 42.4098 168.802 42.8088 169.123 43.3225L168.229 44.2582C168.018 43.8729 167.724 43.5702 167.348 43.35C166.981 43.1207 166.573 43.006 166.124 43.006C165.674 43.006 165.275 43.139 164.927 43.4051C164.587 43.6619 164.321 44.038 164.129 44.5333C163.945 45.0287 163.849 45.6295 163.84 46.3358C163.977 46.0607 164.156 45.8267 164.376 45.6341C164.606 45.4323 164.872 45.2764 165.174 45.1663C165.477 45.0562 165.798 45.0012 166.137 45.0012C166.78 45.0012 167.353 45.1479 167.857 45.4415C168.371 45.735 168.775 46.1295 169.068 46.6248C169.371 47.111 169.522 47.6614 169.522 48.2759ZM166 50.3674C166.376 50.3674 166.72 50.2757 167.032 50.0922C167.353 49.8996 167.605 49.6427 167.789 49.3217C167.981 49.0006 168.078 48.652 168.078 48.2759C168.078 47.8998 167.981 47.5559 167.789 47.244C167.605 46.9321 167.358 46.6844 167.046 46.501C166.734 46.3083 166.385 46.212 166 46.212C165.633 46.212 165.289 46.3083 164.968 46.501C164.647 46.6844 164.39 46.9321 164.197 47.244C164.014 47.5559 163.922 47.8998 163.922 48.2759C163.922 48.652 164.019 49.0006 164.211 49.3217C164.404 49.6336 164.656 49.8858 164.968 50.0784C165.289 50.2711 165.633 50.3674 166 50.3674ZM174.908 51.6608C174.22 51.6424 173.615 51.4819 173.092 51.1792C172.569 50.8765 172.133 50.4821 171.785 49.9959C171.436 49.5005 171.17 48.9685 170.987 48.3998C170.812 47.8219 170.725 47.2577 170.725 46.7074C170.725 46.1203 170.822 45.5332 171.014 44.9461C171.207 44.3591 171.487 43.827 171.854 43.35C172.22 42.8639 172.661 42.4786 173.174 42.1942C173.688 41.9007 174.266 41.7539 174.908 41.7539C175.596 41.7539 176.197 41.9099 176.711 42.2217C177.233 42.5336 177.669 42.9372 178.018 43.4326C178.366 43.9279 178.628 44.4646 178.802 45.0425C178.986 45.6204 179.077 46.1753 179.077 46.7074C179.077 47.3036 178.981 47.8953 178.788 48.4823C178.596 49.0602 178.316 49.5877 177.949 50.0647C177.582 50.5417 177.142 50.9269 176.628 51.2205C176.124 51.5048 175.55 51.6516 174.908 51.6608ZM172.294 46.7074C172.312 47.1293 172.372 47.5513 172.473 47.9732C172.583 48.386 172.748 48.7667 172.968 49.1153C173.188 49.4638 173.459 49.7436 173.78 49.9546C174.101 50.1656 174.477 50.2711 174.908 50.2711C175.358 50.2711 175.743 50.161 176.064 49.9408C176.394 49.7115 176.665 49.418 176.876 49.0602C177.087 48.6933 177.243 48.3035 177.344 47.8907C177.454 47.4779 177.509 47.0834 177.509 46.7074C177.509 46.2854 177.449 45.868 177.33 45.4552C177.22 45.0333 177.055 44.648 176.834 44.2994C176.614 43.9509 176.344 43.6711 176.023 43.4601C175.702 43.2491 175.33 43.1436 174.908 43.1436C174.459 43.1436 174.069 43.2583 173.739 43.4876C173.408 43.7078 173.138 44.0013 172.927 44.3682C172.716 44.726 172.555 45.1112 172.445 45.524C172.344 45.9368 172.294 46.3313 172.294 46.7074Z" fill="white"/>
<path d="M17.7688 40.2197V39.5317C17.3888 39.5317 17.0808 39.8398 17.0808 40.2197H17.7688ZM30.611 40.2197H31.299C31.299 39.8398 30.991 39.5317 30.611 39.5317V40.2197ZM30.611 49.712V50.3999C30.991 50.3999 31.299 50.0919 31.299 49.712H30.611ZM20.5399 49.712V49.024C20.3887 49.024 20.2417 49.0738 20.1217 49.1656L20.5399 49.712ZM17.7688 51.833H17.0808V53.2259L18.187 52.3793L17.7688 51.833ZM17.7688 40.9077H30.611V39.5317H17.7688V40.9077ZM29.9231 40.2197V49.712H31.299V40.2197H29.9231ZM30.611 49.024H20.5399V50.3999H30.611V49.024ZM20.1217 49.1656L17.3506 51.2866L18.187 52.3793L20.958 50.2583L20.1217 49.1656ZM18.4568 51.833V40.2197H17.0808V51.833H18.4568Z" fill="white"/>
<path d="M38.86 46.5698C38.86 45.9735 38.9655 45.391 39.1765 44.8223C39.3875 44.2444 39.6947 43.7215 40.0984 43.2537C40.5111 42.7767 41.0111 42.4006 41.5981 42.1254C42.1852 41.8411 42.8503 41.6989 43.5933 41.6989C44.4739 41.6989 45.2353 41.9007 45.8774 42.3043C46.5195 42.6987 46.9965 43.2078 47.3084 43.8316L46.0975 44.6434C45.9141 44.249 45.6801 43.9371 45.3958 43.7078C45.1206 43.4785 44.8179 43.3179 44.4877 43.2262C44.1666 43.1345 43.8501 43.0886 43.5382 43.0886C43.0246 43.0886 42.5751 43.1941 42.1898 43.4051C41.8045 43.6069 41.4789 43.8775 41.2129 44.2169C40.956 44.5563 40.7588 44.937 40.6212 45.3589C40.4928 45.7809 40.4286 46.2028 40.4286 46.6248C40.4286 47.0926 40.5066 47.5467 40.6625 47.987C40.8184 48.4181 41.034 48.8034 41.3092 49.1428C41.5936 49.473 41.9284 49.7345 42.3136 49.9271C42.6989 50.1197 43.1209 50.216 43.5795 50.216C43.8914 50.216 44.217 50.161 44.5564 50.0509C44.8959 49.9408 45.2077 49.7711 45.4921 49.5418C45.7856 49.3033 46.015 48.9914 46.1801 48.6062L47.4597 49.3354C47.2579 49.8216 46.9414 50.2344 46.5103 50.5738C46.0883 50.9132 45.6113 51.17 45.0793 51.3443C44.5564 51.5186 44.0382 51.6058 43.5245 51.6058C42.8365 51.6058 42.2082 51.4636 41.6394 51.1792C41.0707 50.8857 40.5799 50.5004 40.1672 50.0234C39.7544 49.5372 39.4333 48.996 39.204 48.3998C38.9747 47.7944 38.86 47.1844 38.86 46.5698ZM48.1146 51.592V50.2436C48.3439 50.2436 48.5503 50.1885 48.7338 50.0784C48.9172 49.9592 49.0777 49.7666 49.2153 49.5005C49.3529 49.2254 49.463 48.8447 49.5456 48.3585C49.6281 47.8723 49.6832 47.2532 49.7107 46.501L49.807 44.327H54.9393V51.5232H53.4258V45.6616H51.1417L51.1142 46.6386C51.0775 47.6017 50.9903 48.4044 50.8527 49.0465C50.7151 49.6794 50.5225 50.1839 50.2748 50.56C50.0363 50.9269 49.7336 51.193 49.3667 51.3581C49.0089 51.514 48.5916 51.592 48.1146 51.592ZM59.9882 51.6608C59.4195 51.6608 58.9104 51.5645 58.4609 51.3718C58.0114 51.17 57.6216 50.8948 57.2913 50.5463C56.9703 50.1977 56.7226 49.8033 56.5483 49.3629C56.374 48.9135 56.2869 48.4365 56.2869 47.932C56.2869 47.4274 56.374 46.9504 56.5483 46.501C56.7226 46.0515 56.9703 45.657 57.2913 45.3176C57.6216 44.9691 58.0114 44.6985 58.4609 44.5058C58.9195 44.304 59.4286 44.2031 59.9882 44.2031C60.5478 44.2031 61.0523 44.304 61.5017 44.5058C61.9604 44.6985 62.3503 44.9691 62.6713 45.3176C63.0015 45.657 63.2538 46.0515 63.4281 46.501C63.6024 46.9504 63.6895 47.4274 63.6895 47.932C63.6895 48.4365 63.6024 48.9135 63.4281 49.3629C63.2538 49.8033 63.0015 50.1977 62.6713 50.5463C62.3503 50.8948 61.9604 51.17 61.5017 51.3718C61.0523 51.5645 60.5478 51.6608 59.9882 51.6608ZM57.8417 47.9457C57.8417 48.4044 57.938 48.8172 58.1307 49.1841C58.3233 49.551 58.5801 49.8399 58.9012 50.0509C59.2223 50.2619 59.5846 50.3674 59.9882 50.3674C60.3826 50.3674 60.7404 50.2619 61.0614 50.0509C61.3917 49.8308 61.6531 49.5372 61.8457 49.1703C62.0384 48.7942 62.1347 48.3814 62.1347 47.932C62.1347 47.4733 62.0384 47.0605 61.8457 46.6936C61.6531 46.3267 61.3917 46.0377 61.0614 45.8267C60.7404 45.6066 60.3826 45.4965 59.9882 45.4965C59.5846 45.4965 59.2223 45.6066 58.9012 45.8267C58.5801 46.0469 58.3233 46.3404 58.1307 46.7074C57.938 47.0651 57.8417 47.4779 57.8417 47.9457ZM65.0319 51.5232V44.327H68.8846C69.3432 44.327 69.7193 44.4141 70.0129 44.5884C70.3156 44.7535 70.5403 44.9691 70.6871 45.2351C70.8339 45.4919 70.9072 45.7763 70.9072 46.0882C70.9072 46.4826 70.8155 46.8312 70.6321 47.1339C70.4486 47.4366 70.178 47.6659 69.8202 47.8219C70.233 47.9411 70.5678 48.1521 70.8247 48.4548C71.0907 48.7484 71.2237 49.129 71.2237 49.5969C71.2237 50.0188 71.1228 50.3766 70.921 50.6701C70.7192 50.9545 70.4303 51.17 70.0542 51.3168C69.6872 51.4544 69.2561 51.5232 68.7608 51.5232H65.0319ZM66.4629 50.4775H68.7195C68.9121 50.4775 69.0864 50.4316 69.2423 50.3399C69.4075 50.239 69.5359 50.1105 69.6276 49.9546C69.7193 49.7895 69.7652 49.6152 69.7652 49.4317C69.7652 49.2299 69.7193 49.0511 69.6276 48.8951C69.5451 48.7392 69.4258 48.6153 69.2699 48.5236C69.1231 48.4319 68.9488 48.386 68.747 48.386H66.4629V50.4775ZM66.4629 47.4091H68.4993C68.692 47.4091 68.8617 47.3632 69.0084 47.2715C69.1552 47.1706 69.2699 47.0376 69.3524 46.8725C69.435 46.7074 69.4763 46.5331 69.4763 46.3496C69.4763 46.0836 69.3891 45.8543 69.2148 45.6616C69.0405 45.469 68.8112 45.3727 68.5269 45.3727H66.4629V47.4091ZM72.1413 49.418C72.1413 48.9593 72.2697 48.5603 72.5266 48.2209C72.7926 47.8723 73.1549 47.6063 73.6136 47.4229C74.0722 47.2302 74.6043 47.1339 75.2097 47.1339C75.5307 47.1339 75.8564 47.1568 76.1866 47.2027C76.526 47.2486 76.8241 47.3219 77.081 47.4229V46.9688C77.081 46.4643 76.9296 46.0698 76.6269 45.7855C76.3242 45.5011 75.8885 45.3589 75.3198 45.3589C74.9161 45.3589 74.5355 45.4323 74.1777 45.5791C73.82 45.7167 73.4393 45.9139 73.0357 46.1707L72.5266 45.1525C73.0036 44.8315 73.4806 44.593 73.9576 44.437C74.4437 44.2811 74.9528 44.2031 75.4849 44.2031C76.448 44.2031 77.2048 44.46 77.7552 44.9737C78.3148 45.4782 78.5945 46.1983 78.5945 47.1339V49.817C78.5945 49.9913 78.6221 50.1151 78.6771 50.1885C78.7413 50.2619 78.8468 50.3032 78.9936 50.3124V51.5232C78.856 51.5507 78.7321 51.5691 78.6221 51.5782C78.512 51.5874 78.4202 51.592 78.3469 51.592C78.0258 51.592 77.7827 51.514 77.6176 51.3581C77.4525 51.2021 77.3562 51.0187 77.3287 50.8077L77.2874 50.3949C76.9755 50.7985 76.5765 51.1104 76.0903 51.3306C75.6041 51.5507 75.1134 51.6608 74.618 51.6608C74.141 51.6608 73.7145 51.5645 73.3384 51.3718C72.9623 51.17 72.6688 50.8994 72.4578 50.56C72.2468 50.2206 72.1413 49.8399 72.1413 49.418ZM76.7232 49.8583C76.8333 49.739 76.9205 49.6198 76.9847 49.5005C77.0489 49.3813 77.081 49.2758 77.081 49.1841V48.3585C76.8241 48.2576 76.5535 48.1842 76.2692 48.1383C75.9848 48.0833 75.705 48.0558 75.4298 48.0558C74.8795 48.0558 74.43 48.1659 74.0814 48.386C73.742 48.6062 73.5723 48.9089 73.5723 49.2941C73.5723 49.5051 73.6273 49.7069 73.7374 49.8996C73.8567 50.0922 74.0218 50.2481 74.2328 50.3674C74.4529 50.4866 74.7235 50.5463 75.0446 50.5463C75.3748 50.5463 75.6913 50.4821 75.994 50.3536C76.2967 50.2252 76.5398 50.0601 76.7232 49.8583Z" fill="white"/>
<path d="M24 40.6667C25.4728 40.6667 26.6667 39.4728 26.6667 38C26.6667 36.5272 25.4728 35.3333 24 35.3333C22.5272 35.3333 21.3333 36.5272 21.3333 38C21.3333 39.4728 22.5272 40.6667 24 40.6667ZM24.5 38L24.5 -1.80547e-08L23.5 1.80547e-08L23.5 38L24.5 38Z" fill="black"/>
<path d="M114 44.3333C115.473 44.3333 116.667 45.5272 116.667 47C116.667 48.4728 115.473 49.6667 114 49.6667C112.527 49.6667 111.333 48.4728 111.333 47C111.333 45.5272 112.527 44.3333 114 44.3333ZM114.5 47L114.5 136L113.5 136L113.5 47L114.5 47Z" fill="black"/>
<path d="M162 44.3333C163.473 44.3333 164.667 45.5272 164.667 47C164.667 48.4728 163.473 49.6667 162 49.6667C160.527 49.6667 159.333 48.4728 159.333 47C159.333 45.5272 160.527 44.3333 162 44.3333ZM162.5 47L162.5 136L161.5 136L161.5 47L162.5 47Z" fill="black"/>
<path d="M210 40.6667C211.473 40.6667 212.667 39.4728 212.667 38C212.667 36.5272 211.473 35.3333 210 35.3333C208.527 35.3333 207.333 36.5272 207.333 38C207.333 39.4728 208.527 40.6667 210 40.6667ZM210.5 38L210.5 -1.80547e-08L209.5 1.80547e-08L209.5 38L210.5 38Z" fill="black"/>
</svg>
