<svg width="25" height="25" viewBox="0 0 25 25" fill="none" xmlns="http://www.w3.org/2000/svg">
<path id="Vector" d="M12.0563 4.92624V2.05664M12.0563 23.1004V20.2308M19.7086 12.5785H22.5782M1.53442 12.5785H4.40403M6.64533 7.16754L4.61621 5.13843M19.4964 20.0186L17.4673 17.9895M17.4673 7.16754L19.4964 5.13843M4.61621 20.0186L6.64533 17.9895M12.0563 16.4047C13.1244 16.4047 14.0292 16.034 14.7705 15.2927C15.5118 14.5514 15.8824 13.6466 15.8824 12.5785C15.8824 11.5104 15.5118 10.6057 14.7705 9.86435C14.0292 9.12304 13.1244 8.75238 12.0563 8.75238C10.9882 8.75238 10.0834 9.12304 9.34213 9.86435C8.60082 10.6057 8.23016 11.5104 8.23016 12.5785C8.23016 13.6466 8.60082 14.5514 9.34213 15.2927C10.0834 16.034 10.9882 16.4047 12.0563 16.4047Z" stroke="white" stroke-width="3.00625" stroke-linecap="round" stroke-linejoin="round"/>
</svg>
