<svg width="56" height="56" viewBox="0 0 56 56" fill="none" xmlns="http://www.w3.org/2000/svg">
<path d="M51.647 52.4996V52.4321C49.7516 47.7008 46.4778 43.6583 42.2569 40.8367C38.0359 38.0151 33.0656 36.5467 27.9999 36.6246C22.9346 36.5463 17.9643 38.0142 13.7434 40.8351C9.52251 43.656 6.24881 47.6976 4.35278 52.4282V52.4996M39.0069 14.5889C39.0058 16.7809 38.3596 18.9232 37.1495 20.7452C35.9394 22.5672 34.2199 23.987 32.2086 24.825C30.1972 25.6631 27.9845 25.8818 25.8497 25.4535C23.715 25.0252 21.7541 23.9692 20.2153 22.4188C18.6766 20.8685 17.629 18.8936 17.2047 16.7437C16.7805 14.5938 16.9987 12.3655 17.832 10.3405C18.6652 8.31551 20.0758 6.58479 21.8857 5.36713C23.6957 4.14948 25.8235 3.49957 28.0002 3.49957C29.4461 3.49957 30.8775 3.78644 32.2133 4.3438C33.549 4.90116 34.7628 5.71807 35.785 6.74788C36.8071 7.7777 37.6182 9.00023 38.1711 10.3456C38.7239 11.691 39.0077 13.1329 39.0069 14.5889Z" stroke="white" stroke-width="4" stroke-linecap="round" stroke-linejoin="round"/>
</svg>
